<?xml version="1.0" encoding="utf-8"?>
<!-- Generator: Adobe Illustrator 25.0.0, SVG Export Plug-In . SVG Version: 6.00 Build 0)  -->
<svg version="1.1" id="Capa_1" xmlns="http://www.w3.org/2000/svg" xmlns:xlink="http://www.w3.org/1999/xlink" x="0px" y="0px"
	 viewBox="0 0 1280 1280" style="enable-background:new 0 0 1280 1280;" xml:space="preserve">
<style type="text/css">
	.st0{fill:#303038;}
	.st1{fill:#FFFFFF;}
	.st2{font-family:'Poppins-Bold';}
	.st3{font-size:256.0463px;}
	.st4{letter-spacing:30;}
</style>
<g>
	<circle class="st0" cx="640" cy="640" r="634.5"/>
	<g>
		<path class="st1" d="M1151.86,818.33c19.52-55.87,30.17-115.9,30.17-178.34c0-62.45-10.65-122.44-30.17-178.32
			c-0.46-1.67-1.04-3.32-1.72-4.88C1074.87,247.79,874.62,97.95,640,97.95c-234.62,0-434.87,149.84-510.14,358.84
			c-0.69,1.57-1.27,3.21-1.72,4.88c-19.52,55.87-30.17,115.87-30.17,178.32c0,62.45,10.65,122.47,30.17,178.34
			c0.48,1.67,1.04,3.31,1.72,4.88c75.3,209,275.52,358.84,510.14,358.84c234.62,0,434.87-149.84,510.14-358.84
			C1150.83,821.65,1151.4,820,1151.86,818.33L1151.86,818.33z M640,1104.35c-20.64,0-53.92-37.36-81.75-120.83
			c-13.43-40.27-24.16-86.58-31.99-136.94h227.48c-7.82,50.36-18.56,96.65-31.99,136.94C693.92,1066.99,660.64,1104.35,640,1104.35
			L640,1104.35z M640,175.65c20.64,0,53.93,37.36,81.75,120.83c13.43,40.27,24.18,86.58,31.99,136.94H526.26
			c7.82-50.39,18.56-96.67,31.99-136.94C586.08,213.01,619.36,175.65,640,175.65L640,175.65z M1055.77,433.42H832.21
			c-13.84-95.31-37.54-180.8-70.8-241.63C890.35,226.75,997.19,316.01,1055.77,433.42L1055.77,433.42z M518.59,191.79
			c-33.26,60.83-56.96,146.32-70.8,241.63H224.23C282.81,316.01,389.65,226.75,518.59,191.79L518.59,191.79z M224.23,846.58h223.57
			c13.84,95.31,37.54,180.8,70.8,241.63C389.65,1053.23,282.81,963.99,224.23,846.58L224.23,846.58z M761.41,1088.21
			c33.26-60.83,56.96-146.32,70.8-241.63h223.57C997.19,963.99,890.35,1053.23,761.41,1088.21L761.41,1088.21z M761.41,1088.21"/>
	</g>
	<path class="st0" d="M966.39,790.36H313.61c-81.73,0-148.6-66.87-148.6-148.6v-3.53c0-81.73,66.87-148.6,148.6-148.6h652.78
		c81.73,0,148.6,66.87,148.6,148.6v3.53C1114.99,723.49,1048.12,790.36,966.39,790.36z"/>
	<text transform="matrix(1 0 0 1 261.3088 712.5564)" class="st1 st2 st3 st4">www</text>
</g>
</svg>
