<?xml version="1.0" encoding="utf-8"?>
<!-- Generator: Adobe Illustrator 25.0.0, SVG Export Plug-In . SVG Version: 6.00 Build 0)  -->
<svg version="1.1" xmlns="http://www.w3.org/2000/svg" xmlns:xlink="http://www.w3.org/1999/xlink" x="0px" y="0px"
	 viewBox="0 0 1280 1280" style="enable-background:new 0 0 1280 1280;" xml:space="preserve">
<style type="text/css">
	.st0{display:none;}
	.st1{display:inline;}
	.st2{fill:#303038;}
	.st3{fill:#FFFFFF;}
	.st4{font-family:'Poppins-Bold';}
	.st5{font-size:256.0463px;}
	.st6{letter-spacing:30;}
	.st7{fill:url(#SVGID_1_);}
	.st8{fill-rule:evenodd;clip-rule:evenodd;fill:#FFFFFF;}
</style>
<g id="Capa_1" class="st0">
	<g class="st1">
		<circle class="st2" cx="640" cy="640" r="634.5"/>
		<g>
			<path class="st3" d="M1151.86,818.33c19.52-55.87,30.17-115.9,30.17-178.34c0-62.45-10.65-122.44-30.17-178.32
				c-0.46-1.67-1.04-3.32-1.72-4.88C1074.87,247.79,874.62,97.95,640,97.95c-234.62,0-434.87,149.84-510.14,358.84
				c-0.69,1.57-1.27,3.21-1.72,4.88c-19.52,55.87-30.17,115.87-30.17,178.32c0,62.45,10.65,122.47,30.17,178.34
				c0.48,1.67,1.04,3.31,1.72,4.88c75.3,209,275.52,358.84,510.14,358.84c234.62,0,434.87-149.84,510.14-358.84
				C1150.83,821.65,1151.4,820,1151.86,818.33L1151.86,818.33z M640,1104.35c-20.64,0-53.92-37.36-81.75-120.83
				c-13.43-40.27-24.16-86.58-31.99-136.94h227.48c-7.82,50.36-18.56,96.65-31.99,136.94C693.92,1066.99,660.64,1104.35,640,1104.35
				L640,1104.35z M640,175.65c20.64,0,53.93,37.36,81.75,120.83c13.43,40.27,24.18,86.58,31.99,136.94H526.26
				c7.82-50.39,18.56-96.67,31.99-136.94C586.08,213.01,619.36,175.65,640,175.65L640,175.65z M1055.77,433.42H832.21
				c-13.84-95.31-37.54-180.8-70.8-241.63C890.35,226.75,997.19,316.01,1055.77,433.42L1055.77,433.42z M518.59,191.79
				c-33.26,60.83-56.96,146.32-70.8,241.63H224.23C282.81,316.01,389.65,226.75,518.59,191.79L518.59,191.79z M224.23,846.58h223.57
				c13.84,95.31,37.54,180.8,70.8,241.63C389.65,1053.23,282.81,963.99,224.23,846.58L224.23,846.58z M761.41,1088.21
				c33.26-60.83,56.96-146.32,70.8-241.63h223.57C997.19,963.99,890.35,1053.23,761.41,1088.21L761.41,1088.21z M761.41,1088.21"/>
		</g>
		<path class="st2" d="M966.39,790.36H313.61c-81.73,0-148.6-66.87-148.6-148.6v-3.53c0-81.73,66.87-148.6,148.6-148.6h652.78
			c81.73,0,148.6,66.87,148.6,148.6v3.53C1114.99,723.49,1048.12,790.36,966.39,790.36z"/>
		<text transform="matrix(1 0 0 1 261.3088 712.5564)" class="st3 st4 st5 st6">www</text>
	</g>
</g>
<g id="Capa_2">
	<g>
		<linearGradient id="SVGID_1_" gradientUnits="userSpaceOnUse" x1="640" y1="1181.2388" x2="640" y2="-85.2612">
			<stop  offset="0" style="stop-color:#27CD44"/>
			<stop  offset="1" style="stop-color:#5FFB7C"/>
		</linearGradient>
		<circle class="st7" cx="640" cy="640" r="633.25"/>
		<g>
			<g id="WA_Logo_2_">
				<g>
					<path class="st8" d="M944.62,343.18c-75.84-75.91-176.71-117.73-284.17-117.77c-221.42,0-401.63,180.14-401.72,401.56
						c-0.03,70.78,18.47,139.87,53.62,200.77l-56.99,208.1l212.96-55.84c58.67,31.99,124.74,48.85,191.97,48.88h0.16
						c0.01,0-0.01,0,0,0c221.4,0,401.62-180.16,401.71-401.59C1062.21,519.98,1020.46,419.08,944.62,343.18z M660.45,961.05h-0.14
						c-59.91-0.02-118.68-16.11-169.94-46.53l-12.19-7.23l-126.37,33.14l33.73-123.17l-7.94-12.63
						c-33.42-53.15-51.08-114.57-51.05-177.64c0.07-184.04,149.86-333.76,334.03-333.76c89.18,0.03,173.02,34.8,236.05,97.89
						c63.04,63.09,97.74,146.95,97.7,236.14C994.27,811.31,844.48,961.05,660.45,961.05z M843.6,711.06
						c-10.04-5.02-59.39-29.3-68.59-32.65c-9.2-3.35-15.89-5.02-22.58,5.02c-6.69,10.04-25.93,32.65-31.78,39.34
						c-5.86,6.7-11.71,7.54-21.75,2.51c-10.04-5.02-42.38-15.62-80.72-49.8c-29.84-26.61-49.98-59.47-55.84-69.51
						c-5.85-10.05-0.62-15.48,4.4-20.48c4.52-4.5,10.04-11.72,15.06-17.58c5.02-5.86,6.69-10.05,10.04-16.74
						c3.35-6.7,1.67-12.56-0.84-17.58c-2.51-5.02-22.58-54.41-30.95-74.5c-8.15-19.57-16.42-16.92-22.58-17.23
						c-5.85-0.29-12.55-0.35-19.24-0.35c-6.69,0-17.57,2.51-26.77,12.56c-9.2,10.05-35.13,34.32-35.13,83.71
						c0,49.39,35.97,97.1,40.99,103.8c5.02,6.7,70.78,108.05,171.47,151.52c23.95,10.34,42.65,16.51,57.22,21.14
						c24.05,7.63,45.93,6.56,63.22,3.97c19.28-2.88,59.39-24.28,67.75-47.71c8.36-23.44,8.36-43.53,5.85-47.72
						C860.33,718.6,853.63,716.08,843.6,711.06z"/>
				</g>
			</g>
		</g>
	</g>
</g>
</svg>
