<?xml version="1.0" encoding="utf-8"?>
<!-- Generator: Adobe Illustrator 25.0.0, SVG Export Plug-In . SVG Version: 6.00 Build 0)  -->
<svg version="1.1" xmlns="http://www.w3.org/2000/svg" xmlns:xlink="http://www.w3.org/1999/xlink" x="0px" y="0px"
	 viewBox="0 0 2000 2000" style="enable-background:new 0 0 2000 2000;" xml:space="preserve">
<style type="text/css">
	.st0{fill:#BFBFBF;}
	.st1{fill:#312783;}
	.st2{fill:#312782;}
	.st3{fill:#E84F27;}
	.st4{fill:#0F4CA1;}
	.st5{fill:#303192;}
	.st6{fill:#272361;}
	.st7{fill:#1F186A;}
	.st8{fill:#EC2C27;}
	.st9{fill:none;stroke:#303192;stroke-width:2.889;stroke-miterlimit:10;}
	.st10{fill:none;stroke:#303192;stroke-miterlimit:10;}
	.st11{fill:none;stroke:#303192;stroke-width:2.0461;stroke-miterlimit:10;}
	.st12{display:none;fill:#231865;}
	.st13{fill:#FFFFFF;}
	.st14{fill:#E85029;}
	.st15{fill:#D31907;}
	.st16{fill:none;stroke:#FFFFFF;stroke-width:3.6811;stroke-miterlimit:10;}
	.st17{fill:none;stroke:#FFFFFF;stroke-width:2.5483;stroke-miterlimit:10;}
	.st18{fill:#999999;}
	.st19{display:none;fill:#FDDFB1;stroke:#000000;stroke-width:2.3535;stroke-miterlimit:10;}
	.st20{fill:#F8DC21;}
	.st21{fill:#333333;}
	.st22{fill:#003087;}
	.st23{fill:none;stroke:#333333;stroke-width:2.5483;stroke-miterlimit:10;}
	.st24{display:none;}
	.st25{display:inline;}
	.st26{fill:none;stroke:#FFFFFF;stroke-width:3.2088;stroke-miterlimit:10;}
	.st27{fill:none;stroke:#333333;stroke-width:2.2213;stroke-miterlimit:10;}
	.st28{fill:none;stroke:#FFFFFF;stroke-width:9.3034;stroke-miterlimit:10;}
	.st29{fill:none;stroke:#333333;stroke-width:6.4405;stroke-miterlimit:10;}
</style>
<g id="Capa_1">
</g>
<g id="Capa_2_Blanco">
</g>
<g id="Capa_3">
</g>
<g id="Logo_final">
</g>
<g id="Cuadro">
</g>
<g id="Capa_6">
	<g>
		<path class="st20" d="M521.96,597.57c39.53-27.94,77.76-54.99,116.02-82c176.21-124.41,352.38-248.89,528.68-373.18
			c64.5-45.47,149.21-24.78,182.17,43.71c4.88,10.13,4.49,14.99-6.81,20.4C1073.51,335.06,805.19,464.05,536.8,592.87
			C532.7,594.84,528.9,598.14,521.96,597.57z"/>
		<path class="st20" d="M488.03,597.07c44.8-46.01,89.6-92.03,134.42-138.03C753,325.04,883.62,191.1,1014.08,57
			c16.59-17.05,35.63-28.5,59.53-31.88c42.96-6.07,86.63,23.68,96.99,65.9c2.16,8.82-4.09,10.82-8.58,14.44
			c-69.12,55.65-141.74,106.62-213.29,159.01c-149.68,109.61-299.6,218.9-449.43,328.3c-2.99,2.19-6.09,4.23-9.14,6.33
			C489.44,598.43,488.74,597.75,488.03,597.07z"/>
		<path class="st20" d="M607.48,596.91c166.9-85.82,505.99-246.5,676.82-324.12c72.89-33.12,156.69-2.09,188.71,70.52
			c38.4,87.1,74.86,175.06,112.12,262.66c0.33,0.78,0.04,1.82,0.04,5.36c-3.63-5.76-6.16-9.66-8.59-13.62
			c-67.24-109.9-166.3-173.09-291.98-194.21c-138.7-23.31-269.55,7.41-395.69,63.97c-36.65,16.43-241.82,115.6-278.2,132.66
			C607.62,601.63,607.1,599.37,607.48,596.91z"/>
		<path class="st20" d="M404.47,633.83c23.62-33.54,47.22-67.09,70.86-100.61C587.38,374.3,699.97,215.74,811.25,56.28
			c42.63-61.1,122.97-55.1,159.26-6.13c4.97,6.71,6.19,10.96-0.73,17.93C783.25,255.83,597,443.87,410.69,631.84
			c-1.34,1.35-2.84,2.55-4.26,3.82C405.78,635.05,405.12,634.44,404.47,633.83z"/>
		<path class="st20" d="M330.54,722.5c16.1-3.22,41.86-3.22,45.08,16.1c26.27,59.6,527.61,1183.41,553.88,1243.02
			c-2.21,6.64-22.74,7.61-35.42,3.22c-5.76-2-8.65-6.64-9.66-9.66C870.82,1944.5,328.74,719.5,330.54,722.5z"/>
		<path class="st20" d="M969.01,1982.76c0,0-22.62,14.71-30.57-4.9c-1.83-6.13-554.48-1253.11-554.48-1253.11s-4.28-4.9,0-7.36
			l408.98-179.63c0,0,184.62-87.06,268.99-100.54c7.34,0,217.64-51.5,385.14,57.63c119.82,77.25,165.06,213.35,165.06,213.35
			l188.29,430.37c0,0,61.13,128.74,11,273.43c-55.02,176.56-216.41,278.33-216.41,278.33s-48.91,33.11-84.36,51.5
			s-137.12,61.21-137.12,61.21L969.01,1982.76z"/>
		<path class="st22" d="M798,1498.99c-2.3-0.62-9.2-2.45-9.2-2.45l-4.91-5.52v-7.98l7.06-7.36l2.76-6.75h9.2l7.98-2.45v-7.36
			l-6.14-2.45l-0.61-5.52h-6.75v-3.68l4.3-4.91v-4.91l-7.98-4.91l-4.91-7.98l-0.61-8.59l3.07-4.3l6.14-8.59h6.14l4.3-3.68l3.07-4.91
			l4.3-6.75l9.82,4.3v-9.82l6.14-7.36l6.75-6.75v-7.98v-4.91v-7.98v-7.36l4.3-5.52v-5.52v-6.75v-11.05l5.52-5.52v-11.05l3.07-3.07
			v-9.82l3.07-5.52v-9.2h-6.14l-3.68,6.14l-6.75,0.61l-3.68-2.45l2.45-4.3l0.61-6.14h-6.14v10.43l-8.59-1.23l-9.82-3.07l-4.91-6.14
			l3.07-9.82l2.45-6.14l2.45-5.52l-1.23-5.52l-3.07-6.14l-2.45-4.91l-1.84-5.52l3.07-4.91h-6.75l-6.14-7.36l-7.36-15.34l-5.52-7.36
			l-2.45-9.82l-6.14-5.52c0,0-3.68,0.61-6.14,0c-2.45-0.61,0-6.75,0-6.75l3.68-3.68l4.3-4.3l2.45-6.75l-0.61-6.75l-4.3-4.3
			l-6.61-2.45l-3.2-4.91l-4.3-5.52c0,0-12.27-4.3-14.73-12.89h10.43l-5.52-9.2l-4.91-7.36v-4.3l-5.52-4.3l-4.91-4.3v3.07v4.3
			l-7.36-7.36h-6.75h-5.52h-3.68v-6.75v-4.35l-12.27-6.08l-7.98-4.91l-5.52-3.07v-9.2l4.91-8.59l-1.84-7.36l-6.75-8.59h6.75
			l8.59,3.07l6.14,0.61v-9.82l3.68-9.2v-6.14l4.3-7.36c0,0,3.68-11.05-0.61-14.11s-12.89-10.43-12.89-10.43l-6.75-4.91l-9.2-5.52
			c0,0-6.75-7.36-4.91-11.66c1.84-4.3,4.3-7.36,4.3-7.36l9.82,6.14l8.59,1.84l7.98,1.84l6.75,5.52h5.52l4.3,6.14l3.68,4.3l4.3-4.91
			l1.84,4.91c0,0-1.23,12.89,3.68,12.27c4.91-0.61,6.75-4.91,6.75-6.75c0-1.84-3.07-10.43-3.07-10.43l-5.52-9.2l-4.91-7.36
			l-6.14-9.2H717h-4.3V919.7h7.98l6.75-8.59l3.07-6.14l5.52-8.59l3.68-5.52l5.52-12.89l3.07-14.11v-11.05l4.3-9.82l6.14-7.36
			l6.9-3.68h7.22l3.68-3.68l1.23-11.66l-6.14-6.75l-5.99-3.07v-7.36v-13.5l-5.06-7.98l2.45-7.98h-5.52l-2.45,8.59l-3.68-3.68
			l1.23-7.98l6.14-4.91l-3.68-4.3l-4.91,3.07l0.61-6.14l0.61-9.2v-9.82l6.14-10.43l4.91-7.36l3.22-6.75l5.99-4.91l1.23-10.43
			l6.75-9.82h9.2l11.05-4.3l12.27-3.07h5.52c0,0,6.75-8.59,4.3-17.8c-2.45-9.2-1.23-12.27-1.23-12.27l1.84-6.75l6.75-3.07h12.89
			h11.66l9.2-5.52l6.75-3.68h6.75l6.75-6.14l5.52-7.98v-6.75c0,0,5.52-5.52,5.52-7.36c0-1.84,3.07-9.2,3.07-9.2l4.91-8.59v-5.52
			l7.36-4.3l4.3-5.52l5.52-4.3l9.82-3.68l3.07-7.36l5.52-10.43v-8.59v-6.75l-4.91-5.52l-1.23-3.68l9.2-4.91h6.14v4.3l5.52-4.3
			l-7.36-4.91l7.36-7.98l9.2-7.36v-6.75l3.68-4.3h11.66h10.43h4.91l4.3,6.14l3.07,3.68l4.91,1.84l3.68,2.45v3.07v6.14v4.3l-4.3,4.91
			l-3.07,7.98l-5.52,7.98l-14.11,13.5l-7.98,5.52l-6.14,4.3l-0.61,17.18l-1.84,7.36l-1.84,7.36v7.98l-3.07,6.14l-8.59,15.34
			l-3.68,12.89l-0.61,12.27v11.05l0.61,9.82l0.61,6.75l-3.68,6.75l-1.23,7.98l3.07,5.52l1.84,9.2l0.61,6.14l0.61,4.3l4.91,5.52v8.59
			v10.43l-1.23,7.98l-1.84,7.98l-1.84,6.14l-0.61,7.36l-0.61,7.36v6.14l7.98-4.91l5.52-6.75l1.23-6.14c0,0,0-6.14,3.68-4.3
			c3.68,1.84,5.52,6.75,5.52,6.75l4.3,7.36l4.3-5.52c0,0,9.82-3.07,13.5,2.45c3.68,5.52,6.75,11.66,6.75,11.66l7.36,4.91v3.68
			l7.36,7.98l10.43,4.3l8.59,1.84l6.14,1.84l3.68,6.14l4.3,7.98v4.91l4.91,4.3c0,0,1.23,4.91,0,6.75s0.55,7.36,0.55,7.36v12.27
			l7.43,8.59c0,0,5.52,4.3,6.14,6.14s3.07,6.75,3.07,6.75l7.98-4.3l7.36-3.68l7.36,6.75l17.18,13.5l11.05-6.14l6.14-6.75l14.11-0.61
			l9.2-6.75l11.66-4.3l8.59-3.68l8.59-2.45l8.59-7.98l11.66-7.98l10.43-4.3l11.05,1.23l12.89-1.23l7.98-6.14l11.05,2.45l7.36,3.68
			l8.59,4.3l8.59,4.3l8.59,4.3l8.59,4.91l14.11,6.14l7.98,5.52h8.59l7.36-1.84l3.07-3.68v-7.98l10.43-3.68l17.8-4.3l9.2-1.23
			l5.52-6.14l8.59-4.91l6.14-3.07l3.68-3.07l6.75-3.07l6.14-3.68l5.52-3.68l7.36-4.3l5.52-9.82l7.98-3.07l12.89-3.07l7.36,3.07
			l6.75,6.75l7.36,5.52l-3.68,8.59l-1.23,9.2c0,0-1.23,6.75-1.23,8.59c0,1.84,6.14,5.52,6.14,5.52v9.82c0,0,0.61,4.3,0,6.14
			c-0.61,1.84-4.3,5.52-4.3,7.36c0,1.84-6.14,7.36-6.14,7.36l10.7,11.05l4.02,12.27l4.91,12.89v12.27l6.14,9.2l7.36,1.84l4.3,2.45
			l7.36,15.96l6.75,6.75l11.05,8.59l6.75,7.98l6.75,0.61c0,0,3.07-1.23,4.3,1.23c1.23,2.45,8.59,7.36,8.59,7.36l10.43,10.43v4.91
			v15.96l-14.11,30.07l-3.68,7.36l5.52-1.84l4.91-3.07l7.36-1.23c0,0,1.84,0.61,3.07,2.45s6.14,3.68,6.14,3.68l9.2,1.23l5.52,3.68
			l10.43,2.45l12.27,3.07v9.15v3.74l7.98,2.45c0,0,3.68,2.45,4.3,4.3c0.61,1.84,4.3,5.52,4.3,5.52l10.43,9.2l6.14,6.14l9.13,6.14
			l2.53,5.52l3.07,7.98l4.91,1.84l2.45,6.14v3.68v6.75l-9.82,4.91l-3.14-1.23l-4.22-6.14l-0.61-8.59l-7.36-9.2l-4.3-3.07l-5.52-4.91
			l-3.07-5.52l-9.82-1.23l-5.52-4.91l-4.3-7.36l-2.45-9.82l-9.82,1.23l-1.84,10.43l-3.07,7.98l-2.45,4.91l-5.52,5.52l-5.52,3.68
			l1.23,6.14v6.14l-14.11-2.45l-5.52-3.07l-8.59,0.61l-1.23,7.36l3.68,3.07l4.91,2.45l-2.45,5.52l-16.57,7.36l-11.66,6.75
			l-13.5,4.91l-11.66,6.14l-7.98,4.3l-9.2,2.45l-7.98,4.91l-9.2-0.61l-6.14,1.84l-6.14,0.61l-1.84,7.59h-6.14l-5.52,7.75l2.45,6.14
			l8.59,17.18l1.84,7.36l4.91,9.82l5.52-3.07l6.14-3.07l10.43-1.84l10.43-3.68l3.68-6.14h7.36l6.14,4.91l8.59,7.36l1.84,6.14
			l3.07,9.82l-6.75,6.14l-4.91,0.61h-8.59l-7.36-1.23l-1.84,5.52l0.61,4.91l-13.5,1.84l-1.23,7.36l-12.89,6.14v7.36l20.86,44.8
			l8.59,5.52l7.98,3.07l14.73,6.14l5.52,4.3l11.66,6.75c0,0,3.07,3.07,4.91,4.3s8.59,5.52,8.59,5.52l8.59,6.75l3.68,7.98l4.91,10.43
			l2.45,10.43l6.14,20.25l46.02,191.46h-9.82l-9.2-6.14l-5.52-3.07c0,0-13.5-9.2-19.64-1.84l-0.61,6.75l-5.52,0.61l-6.14,3.68h-5.52
			l-5.52-4.3l13.5-92.05l-3.07-6.14l-7.36,4.3l-5.52-3.68l-6.75,1.84l-4.3-4.3l-5.52-1.23l-5.52,3.68l-4.3-2.45l-1.23,6.14
			l-9.82-3.68l-14.73-2.45l-7.98-1.84l-4.91,2.45l-3.07,4.91l-4.3,4.91l1.84,6.14h-7.98l-3.68,4.91l-4.3,4.91l-4.91-2.45l-1.23-4.91
			l-3.07,0.61l-1.23,3.68l-3.68-0.61l-10.43-2.45c0,0-2.45-0.61-4.3,0c-1.84,0.61-1.84,0.61-1.84,0.61l-2.45-3.07l-6.14,2.45
			l1.84,8.59v4.91l-3.07,1.23l-1.84,9.2l-5.52,0.61l-4.3,7.36l-6.75,3.07l-3.07,2.45l-6.75,1.84l-12.27,4.3l-9.2,1.84l-0.61,6.75
			l-9.82,1.23l-3.07,5.52l-6.14,0.61l-4.3-4.91l-7.98,3.68l-9.2-2.45l-3.68-4.91l1.23-8.59l-3.07-7.36l-2.45-6.75l-6.14-3.07
			l-4.91-4.3l-4.3,3.07l-4.3,3.68l-7.98,3.07l-5.52-2.45l-5.52-1.84l-1.23-6.75l-1.84-6.75l-7.98-7.98c0,0-8.59-4.3-11.05-4.3
			s-10.43-1.23-10.43-1.23l-7.98,0.61l-9.2-0.61l-4.3-0.61h-12.27l-8.59,0.61l-4.91-4.3l-2.45-6.75l-9.2-4.3l-3.07-6.14l-5.52-4.91
			l-5.52-3.07l-10.43-3.68l-6.75-0.61l-7.98-1.23l-3.07-4.91l-3.68-0.61c0,0-1.23,3.07-3.68,3.68s-11.05,0.61-11.05,0.61l-6.75-2.45
			h-9.2l-5.52,4.3l-7.98,2.45l-15.96,0.61h-9.82l-3.68,4.3l-7.36,2.45l-4.91-3.68h-11.05l-2.45-6.14l-3.68-2.45h-12.27l-10.43,1.23
			l-4.91,1.84l-2.45,4.3l1.84,3.68l1.23,3.68l-3.07,4.91l-4.91,0.61l-11.05,3.68l-4.91,3.68l-4.3,2.45l-13.5,1.23h-10.43l-6.75,3.07
			l-9.2,3.07l-6.14,1.84l-5.52-1.84l-4.3-3.68l-1.84-6.14l-9.82-2.45l-5.52,2.45l-4.3-4.3l0.61-6.75h-6.14l-5.52,4.3
			c0,0-3.07,3.68-4.91,4.91c-1.84,1.23-4.91,2.45-4.91,2.45l-10.43,0.61l-6.75-5.52l-11.05-1.23l-7.36-1.23l-4.3-0.61h-6.75
			l-6.14-0.61l-5.52-2.45l-7.98-0.61l-6.75-1.23l-4.91-2.45C811.51,1502.67,801.38,1499.9,798,1498.99z"/>
		<g>
			<path class="st13" d="M1010.51,1008.56c-24.92-65.29-80.24-25.42-80.24-25.42s-36.88,35.39,2.49,70.77
				c29.41,27.91,77.75,45.35,77.75,45.35S1018.98,1048.93,1010.51,1008.56z M962.91,1052.17c-18.3,0-33.14-14.84-33.14-33.14
				c0-18.3,14.84-33.14,33.14-33.14c18.3,0,33.14,14.84,33.14,33.14C996.05,1037.33,981.22,1052.17,962.91,1052.17z"/>
			<g>
				<g>
					<line class="st28" x1="940.23" y1="1008.06" x2="962.91" y2="1044.94"/>
					<path class="st28" d="M973.63,1011.05l-22.05,15.45L973.63,1011.05z"/>
					<path class="st28" d="M984.59,1028.99l-20.16-33.39L984.59,1028.99z"/>
				</g>
			</g>
		</g>
		<path class="st29" d="M326.86,825.35c0,0-295.8,116.13-95.28,285.49"/>
		<path class="st29" d="M1795.16,1122.75c-135.99,101.2-432.1,171.35-775.49,171.35c-211.26,0-404.61-26.55-553.81-70.55"/>
		<path class="st29" d="M1675.28,741.56c108.02-12.2,188.34,6.52,222.81,60.33c86.63,135.25-149.27,440.96-526.89,682.82
			s-753.96,328.29-840.59,193.04c-40.24-62.82-10.89-162.43,69.93-275.33"/>
		<path class="st21" d="M114.62,1286.04L84,1267.33l7.14-9.52l23.47,11.23l172.13-105.45c0,0-49.67-26.53-37.76-47.96
			c12.59-20.41,113.28,24.83,113.28,24.83l15.65-6.8c0,0-8.84-35.04,0-61.91c5.44-4.42,11.23-7.48,11.23-7.48l18.37,55.79
			l113.96-48.64l14.29-25.51h10.55l-11.23,35.72l-77.22,46.6c0,0,4.08,8.5,1.7,9.52s-10.21-4.76-10.21-4.76l-12.25,6.46
			c0,0,4.76,8.16,1.36,9.52c-3.4,1.36-7.82-4.08-7.82-4.08l-9.86,3.74l7.14,22.79l101.71-38.1l13.61,7.48l-99.67,49.67
			c0,0,10.21,19.39-5.1,23.81c-15.31,4.42-39.12-3.74-39.12-3.74l-79.94,33.34l-8.16-6.46l47.62-35.38c0,0-29.59-8.84-66.67,2.38
			c0,0,2.72,6.46-0.34,8.84c-3.06,2.38-9.52-6.12-9.52-6.12l-17.01,6.46c0,0,6.12,8.16,2.38,9.86c-3.74,1.7-11.91-7.14-11.91-7.14
			l-17.01,6.46c0,0,5.44,10.55,1.36,12.25c-4.08,1.7-10.89-7.14-10.89-7.14S181.29,1245.22,114.62,1286.04z"/>
		<g id="Turistas_4_">
			<path class="st21" d="M1743.75,876.37c0,0,8.46-7.96,16.64,1.85c1.99,2.79-0.24,3.19-0.24,3.19l-5.98,3.18L1743.75,876.37z"/>
			<path class="st21" d="M1755.52,881.55c0,0,4.71-4.64,6.87-3.23c12.48,8.6,14.8,21.93,14.8,21.93S1761.13,888.77,1755.52,881.55z"
				/>
			<path class="st21" d="M1873.3,991.05c-6.89-5.74-11.59,3.03-11.59,3.03l-4.72,7.7c0,0-2.1,4.32-3.91,0.48
				c-53.36-47.5-68.57-58.28-68.57-58.28l-31.66-34.54c0,0,21.35,10.58,26.9,4.01c6.69-7.79-6.38-17.18-6.38-17.18
				s-21.63-18.85-28.41-21.12c-11.66-8.53-19.13-4.15-19.13-4.15l-6.22-2.14l-4.17-5.64c0,0,5.56-5.22,4.32-9.21
				c-1.6-13.32-15.75-19.04-15.75-19.04l-1.05-4.03c-22.54-3.8-24.32,16.17-24.32,16.17l-2.47,1.88c0,0-8.23-1.62-14.46,5.67
				c-6.28,5.68,0.41,21.98,0.94,23.99c1.97,6.49-8.24,9.69-8.24,9.69s7.08,11.61,23.6,2.71c10.51-5.42,10.99-23.88,10.99-23.88
				c2.12,2.95,7.7,4.72,7.7,4.72s3.5,2.05,1.54,1.75c-14.48,5.4-8.52,18.92-8.52,18.92l11.89,36.21
				c-4.66,13.07,9.29,46.85,9.29,46.85l1.12,4.29l0.66,2.52c0,0-0.68,1.52-1.74,2.61c-6.18,1.08-5.79,7.71-5.79,7.71l2.96,36.03
				l-1.76,0.46l0.42,1.59l-8.71,0.66c-4.99,0.5-5.5,5.75-5.5,5.75s5.23,74.58,5.58,77.98c-0.12,6.76,4.76,7.91,4.76,7.91l0.79,3.02
				c0,0,1.65,6.3,8.12,3.26c3.73-0.17,3.22-6.23,3.22-6.23l34.99-2.15c0,0,2.24,8.57,10.42,4.82c5.55-6.57-2.23-13.69-2.23-13.69
				s-4.82-71.99-5.17-74.32c0.24-12.45-16.78-8.54-16.78-8.54l0.04-1.9l-2.03-0.55c0,0-2.49-31.13-2.7-32.96
				c1.3-8.42-6.36-9.92-6.36-9.92l-2.39-9.12l1.76-0.46l-0.36-5.51c0,0,3.29,6.41,7.86,8.45c1.52,0.68,7.53,12.3,7.53,12.3
				s10.39,25.29,17.22,31.85c1.91,24.81,15.85,51.33,15.85,51.33l0.79,3.02l-1.07,6.2c0,0-0.67,7.72,9.37,6.98
				c2.65-0.16,5.6,3.92,6.83,6.56c6.41,8.02,13.87,2.57,13.87,2.57s11.35-8.09,4.7-14.96c-3.32-3.44-8.76,2.56-8.76,2.56
				s-10.81-6.33-13.4-12.11c-0.8-50.42-5.23-57.07-5.23-57.07l-2.02-5.67l-3.15-11.02l-7.4-24.19c0,0,12.99,3.33,13.96,4.97
				c0.97,1.63,24.05,9.6,24.05,9.6c11.48,21.24,41.46,23.63,41.46,23.63l1.46,0.43c0,0,1.08,6.18,7.29,8.33
				c6.58,0.43,8.71-6.86,8.71-6.86l2.04-4.57l3.12-3.51l4.23-6.49C1873.54,1001.23,1876.58,996.39,1873.3,991.05z M1728.18,992.56
				c0.22,0.84,3.3,34.59,3.3,34.59l-1.51,0.4l0.02,2.15l-16.78,1.07l-0.11-2.13l-1.34,0.35l-3.32-36.03c0,0-0.09-4.11,2.92-4.62
				c1.31,4.33,5.22,3.12,5.22,3.12l1.75-0.19c0,0,0.23,1.56,1.34,1.35c2.53,0.06,3.43-1.98,3.43-1.98s3.05-0.71,2.5-2.81
				C1725.38,987.01,1728.18,988.79,1728.18,992.56z"/>
			<path class="st21" d="M1742.76,928.87l23.56-14.24c0,0,8.74,1.21,11.62-1.52c2.68-1.42,3.09-5.38,3.09-5.38
				s12.59,6.94,10.29,20.11c-3.05,14.44-9.21,21.08-17.39,28.25c-2.51,1.38-11.46,7.67-17.15-0.36
				C1750.97,947.19,1742.76,928.87,1742.76,928.87z"/>
			<path class="st21" d="M1743.19,930.04c0,0-21.82-33.48-23.25-47.26c-1.23-6.42,5.99-18.76,21.41-9.73
				c-26.37-0.94-12.09,22.01-12.09,22.01l15.18,24.4C1744.43,919.46,1761.87,946.95,1743.19,930.04z"/>
		</g>
	</g>
</g>
</svg>
