<?xml version="1.0" encoding="utf-8"?>
<!-- Generator: Adobe Illustrator 25.0.0, SVG Export Plug-In . SVG Version: 6.00 Build 0)  -->
<svg version="1.1" xmlns="http://www.w3.org/2000/svg" xmlns:xlink="http://www.w3.org/1999/xlink" x="0px" y="0px"
	 viewBox="0 0 960 990" style="enable-background:new 0 0 960 990;" xml:space="preserve">
<style type="text/css">
	.st0{fill:#908983;}
	.st1{fill:#AF3D3D;}
	.st2{fill:#272422;}
	.st3{fill:#4C4642;}
	.st4{fill:#EB5151;}
	.st5{fill:#EAB77D;}
	.st6{fill:#5093B1;}
	.st7{fill:#78B7CF;}
	.st8{fill:#2D788F;}
	.st9{fill:#DBC2BC;}
	.st10{fill:#ECD4CE;}
	.st11{fill:#EBD9D6;}
	.st12{fill:#E7A2BC;}
	.st13{fill:#D890B1;}
	.st14{fill:#FF5A6C;}
	.st15{fill:#D54C60;}
	.st16{fill:#122D41;}
	.st17{fill:#C39565;}
	.st18{fill:#83679B;}
	.st19{fill:#635074;}
	.st20{fill:#C8C1A7;}
	.st21{fill:#8F6450;}
	.st22{fill:#E7E0C6;}
	.st23{fill:#FFFFFF;}
	.st24{fill:#982B2B;}
	.st25{fill:#D44F4F;}
	.st26{clip-path:url(#SVGID_2_);fill:#FFFFFF;}
	.st27{fill:#998675;}
	.st28{fill:#42210B;}
	.st29{clip-path:url(#SVGID_4_);}
	.st30{fill:#E2E2E2;}
	.st31{opacity:0.3;fill:#F6FEFF;stroke:#000000;stroke-width:7.9795;stroke-miterlimit:10;}
	.st32{fill:#161D21;}
	.st33{fill:#F5F5F5;}
	.st34{fill:#ECECEC;}
	.st35{fill:#E1E1E1;}
	.st36{fill:#FF735D;}
	.st37{fill:#1A2E35;}
	.st38{fill:#FAFAFA;}
	.st39{opacity:0.2;}
	.st40{opacity:0.6;}
	.st41{fill:#FFBF9D;}
	.st42{fill:#375A64;}
	.st43{fill:#FF9A6C;}
	.st44{opacity:0.3;}
</style>
<g id="Capa_1">
</g>
<g id="Capa_2">
	<g>
		<g>
			<polygon class="st23" points="40.97,8.77 40.97,553.38 942.87,553.38 942.87,75.03 283.66,75.03 282.83,8.77 			"/>
			<polygon class="st33" points="281.65,83.47 280.8,21.28 503.94,21.28 503.94,83.47 			"/>
			<rect x="503.94" y="32.86" class="st34" width="220.13" height="50.61"/>
			<polygon class="st35" points="723.58,83.47 724.07,38.94 942.87,38.94 942.87,83.47 			"/>
			<g>
				<path class="st36" d="M237.12,52.37c0,0.34-34.68,0.61-77.46,0.61c-42.79,0-77.47-0.27-77.47-0.61c0-0.34,34.68-0.61,77.47-0.61
					C202.44,51.76,237.12,52.04,237.12,52.37z"/>
			</g>
			<g>
				<path class="st37" d="M470.95,52.37c0,0.34-34.68,0.61-77.46,0.61c-42.79,0-77.47-0.27-77.47-0.61c0-0.34,34.68-0.61,77.47-0.61
					C436.27,51.76,470.95,52.04,470.95,52.37z"/>
			</g>
			<g>
				<path class="st37" d="M695.57,61.2c0,0.34-34.68,0.61-77.46,0.61c-42.79,0-77.47-0.27-77.47-0.61c0-0.34,34.68-0.61,77.47-0.61
					C660.89,60.6,695.57,60.87,695.57,61.2z"/>
			</g>
			<g>
				<path class="st37" d="M913.72,62.93c0,0.34-34.68,0.61-77.46,0.61c-42.79,0-77.47-0.27-77.47-0.61c0-0.34,34.68-0.61,77.47-0.61
					C879.03,62.32,913.72,62.6,913.72,62.93z"/>
			</g>
			<rect x="40.97" y="78.72" class="st38" width="901.9" height="53.13"/>
			<rect x="40.97" y="128.27" class="st36" width="429.98" height="53.13"/>
			<rect x="724.07" y="128.27" class="st36" width="218.8" height="53.13"/>
			<g>
				<g>
					<g>
						<g>
							<g>
								<g>
									
										<rect x="99.41" y="249.09" transform="matrix(1 -1.062940e-03 1.062940e-03 1 -0.3897 0.2723)" class="st36" width="313.1" height="235.33"/>
								</g>
							</g>
						</g>
					</g>
					<g class="st39">
						<g>
							<g>
								<g>
									<polygon points="99.53,484.58 208.74,338.19 276.58,429.63 322.47,380.66 412.63,484.25 									"/>
								</g>
							</g>
						</g>
					</g>
					<g class="st39">
						<g>
							<g>
								<g>
									<g>
										<g>
											<path d="M305.21,320.17c0.01,13.62-11.01,24.67-24.63,24.68c-13.62,0.01-24.66-11.01-24.68-24.63
												c-0.01-13.62,11.01-24.66,24.63-24.68S305.2,306.55,305.21,320.17z"/>
										</g>
									</g>
								</g>
							</g>
						</g>
					</g>
				</g>
			</g>
			<g>
				<g>
					<path class="st36" d="M648.98,254.65c0,0.34-30.1,0.61-67.21,0.61c-37.13,0-67.22-0.27-67.22-0.61
						c0-0.34,30.09-0.61,67.22-0.61C618.88,254.04,648.98,254.32,648.98,254.65z"/>
				</g>
				<g>
					<path class="st37" d="M852.19,299.74c0,0.34-75.59,0.61-168.81,0.61c-93.25,0-168.83-0.27-168.83-0.61
						c0-0.34,75.57-0.61,168.83-0.61C776.6,299.13,852.19,299.4,852.19,299.74z"/>
				</g>
				<g>
					<path class="st37" d="M852.19,329.13c0,0.34-75.59,0.61-168.81,0.61c-93.25,0-168.83-0.27-168.83-0.61
						c0-0.34,75.57-0.61,168.83-0.61C776.6,328.52,852.19,328.8,852.19,329.13z"/>
				</g>
				<g>
					<path class="st37" d="M852.19,358.52c0,0.34-75.59,0.61-168.81,0.61c-93.25,0-168.83-0.27-168.83-0.61s75.57-0.61,168.83-0.61
						C776.6,357.92,852.19,358.19,852.19,358.52z"/>
				</g>
				<g>
					<path class="st37" d="M852.19,387.92c0,0.34-75.59,0.61-168.81,0.61c-93.25,0-168.83-0.27-168.83-0.61s75.57-0.61,168.83-0.61
						C776.6,387.31,852.19,387.58,852.19,387.92z"/>
				</g>
				<g>
					<path class="st37" d="M852.19,417.31c0,0.34-75.59,0.61-168.81,0.61c-93.25,0-168.83-0.27-168.83-0.61s75.57-0.61,168.83-0.61
						C776.6,416.7,852.19,416.97,852.19,417.31z"/>
				</g>
				<g>
					<path class="st37" d="M852.19,446.7c0,0.34-75.59,0.61-168.81,0.61c-93.25,0-168.83-0.27-168.83-0.61
						c0-0.34,75.57-0.61,168.83-0.61C776.6,446.09,852.19,446.37,852.19,446.7z"/>
				</g>
				<g>
					<path class="st37" d="M852.19,471.68c0,0.34-75.59,0.61-168.81,0.61c-93.25,0-168.83-0.27-168.83-0.61
						c0-0.34,75.57-0.61,168.83-0.61C776.6,471.07,852.19,471.34,852.19,471.68z"/>
				</g>
			</g>
			<g>
				<path class="st37" d="M40.97,8.77c2.48,0,88.42-0.12,241.86-0.34l0.33,0l0,0.33c0.27,21.99,0.56,45.34,0.87,69.95l-0.38-0.37
					c166.57-0.05,395.32-0.12,659.21-0.2l0.58,0v0.58c0.01,146.86,0.02,307.44,0.03,474.66v0.61h-0.61c-0.11,0-0.23,0-0.34,0
					c-342.92-0.05-657.92-0.1-901.56-0.13h-0.48l0-0.48C40.78,219.73,40.96,12.61,40.97,8.77c0,3.84,0.18,210.97,0.47,544.61
					l-0.47-0.47c243.64-0.04,558.64-0.08,901.56-0.13c0.12,0,0.23,0,0.34,0l-0.61,0.61c0.01-167.21,0.02-327.8,0.03-474.66
					l0.58,0.58c-263.89-0.08-492.64-0.15-659.21-0.2l-0.37,0l0-0.37c-0.28-24.62-0.54-47.96-0.79-69.95l0.34,0.33
					C129.38,8.89,43.45,8.77,40.97,8.77z"/>
			</g>
			<g>
				<path class="st37" d="M206.56,154.14c0,0.34-26.24,0.61-58.59,0.61c-32.37,0-58.6-0.27-58.6-0.61c0-0.34,26.23-0.61,58.6-0.61
					C180.33,153.53,206.56,153.81,206.56,154.14z"/>
			</g>
			<g>
				<path class="st37" d="M255.85,181.52c-0.34,0-0.61-11.52-0.61-25.74c0-14.22,0.27-25.74,0.61-25.74
					c0.34,0,0.61,11.52,0.61,25.74C256.45,170,256.18,181.52,255.85,181.52z"/>
			</g>
			<g>
				<path class="st37" d="M421.22,156.33c0,0.34-23.54,0.61-52.57,0.61c-29.04,0-52.57-0.27-52.57-0.61
					c0-0.34,23.53-0.61,52.57-0.61C397.68,155.72,421.22,156,421.22,156.33z"/>
			</g>
			<g>
				<path class="st37" d="M916.26,155.24c0,0.34-28.69,0.61-64.07,0.61c-35.39,0-64.07-0.27-64.07-0.61
					c0-0.34,28.68-0.61,64.07-0.61C887.57,154.63,916.26,154.9,916.26,155.24z"/>
			</g>
			<g>
				<path class="st37" d="M644.64,156.33c0,0.34-23.54,0.61-52.57,0.61c-29.04,0-52.57-0.27-52.57-0.61
					c0-0.34,23.53-0.61,52.57-0.61C621.11,155.72,644.64,156,644.64,156.33z"/>
			</g>
			<g>
				<path class="st37" d="M942.87,181.39c0,0-1.35,0.05-3.96,0.08c-2.64,0.02-6.52,0.04-11.58,0.07
					c-10.18,0.03-25.09,0.08-44.13,0.14c-38.15,0.05-92.84,0.12-159.13,0.21l-0.5,0l0-0.5c-0.01-16.83-0.03-34.64-0.04-53.13
					l0.54,0.54c-68.56,0.02-147.94,0.04-232.13,0.07c-7.04,0-14.04,0-20.99,0l0.61-0.61c0,18.14,0,35.94-0.01,53.13l0,0.6l-0.6,0
					c-121.79-0.08-229.28-0.15-306.34-0.2c-38.51-0.08-69.41-0.14-90.71-0.18c-10.62-0.05-18.85-0.08-24.44-0.11
					c-2.77-0.02-4.88-0.04-6.33-0.06c-1.42-0.02-2.15-0.06-2.15-0.06s0.73-0.04,2.15-0.06c1.45-0.01,3.56-0.03,6.33-0.06
					c5.6-0.02,13.82-0.06,24.44-0.11c21.3-0.04,52.21-0.11,90.71-0.18c77.07-0.05,184.55-0.12,306.34-0.2l-0.6,0.6
					c0-17.19,0-34.99-0.01-53.13l0-0.61h0.61c6.95,0,13.95,0,20.99,0c84.19,0.03,163.56,0.05,232.13,0.07l0.54,0l0,0.54
					c-0.01,18.49-0.03,36.3-0.04,53.13l-0.5-0.5c66.29,0.09,120.98,0.16,159.13,0.21c19.04,0.06,33.95,0.11,44.13,0.14
					c5.06,0.03,8.93,0.06,11.58,0.07C941.52,181.34,942.87,181.39,942.87,181.39z"/>
			</g>
		</g>
		<g>
			<polygon class="st37" points="891.38,251.12 913.84,318.37 921.89,297.64 949.57,328.91 960,319.59 932.32,288.33 952.96,282.2 
							"/>
			<g>
				<path class="st37" d="M880.23,254.36c0.01,0.34-7.46,0.74-16.68,0.89c-9.22,0.16-16.7,0.01-16.7-0.33
					c-0.01-0.34,7.46-0.74,16.68-0.89C872.74,253.88,880.22,254.02,880.23,254.36z"/>
			</g>
			<g>
				<path class="st37" d="M887.69,246.03c-0.1,0.13-2.31-1.29-5.8-3.7c-3.49-2.41-8.26-5.8-13.47-9.61
					c-5.22-3.81-9.91-7.32-13.27-9.9c-3.36-2.59-5.39-4.26-5.29-4.4c0.1-0.14,2.3,1.28,5.79,3.69c3.49,2.41,8.26,5.81,13.49,9.63
					c5.23,3.82,9.92,7.32,13.28,9.91C885.77,244.23,887.79,245.89,887.69,246.03z"/>
			</g>
			<g>
				<path class="st37" d="M895.78,239.83c-0.34,0.02-0.86-5.15-1.32-11.52c-0.2-2.84-0.38-5.45-0.57-8.15
					c-0.11-2.11-0.33-3.28-0.23-3.37c0.6-0.17,1.6,5.06,2.01,11.43C896.14,234.61,896.11,239.81,895.78,239.83z"/>
			</g>
		</g>
		<g>
			<g>
				<g>
					<g>
						<g>
							<g>
								<g>
									<g>
										<g>
											<g>
												<g>
													<g>
														<g>
															<path class="st36" d="M347.92,942.24v47.21l95.19-0.46c-0.69-9.57-52.93-28.67-52.93-28.67l1.04-18.08H347.92z"/>
														</g>
													</g>
												</g>
											</g>
										</g>
									</g>
								</g>
							</g>
						</g>
						<g class="st40">
							<g>
								<g>
									<g>
										<g>
											<g>
												<g>
													<g>
														<g>
															<g>
																<path class="st23" d="M363.32,956.04c-1.83,0.56-3.06,2.76-2.61,4.72c0.45,1.95,2.56,3.31,4.39,2.78
																	c1.83-0.52,3.39-3.12,2.74-5.01c-0.66-1.89-3.21-3.33-4.87-2.36"/>
															</g>
														</g>
													</g>
												</g>
											</g>
										</g>
									</g>
								</g>
							</g>
						</g>
						<g>
							<g>
								<g>
									<g>
										<g>
											<g>
												<g>
													<g>
														<g>
															<path class="st37" d="M347.92,989.45v-7.54l90.88,1.07c0,0,4.74,2.85,4.31,6L347.92,989.45z"/>
														</g>
													</g>
												</g>
											</g>
										</g>
									</g>
								</g>
							</g>
						</g>
						<g>
							<g>
								<g>
									<g>
										<g>
											<g>
												<g>
													<g>
														<g>
															<g>
																<path class="st37" d="M390.17,961.23c-0.01,0.49-2.32,0.75-4.57,2.36c-2.29,1.55-3.43,3.69-3.86,3.5
																	c-0.43-0.09,0.22-3.03,2.98-4.92C387.46,960.24,390.27,960.78,390.17,961.23z"/>
															</g>
														</g>
													</g>
												</g>
											</g>
										</g>
									</g>
								</g>
							</g>
						</g>
						<g>
							<g>
								<g>
									<g>
										<g>
											<g>
												<g>
													<g>
														<g>
															<g>
																<path class="st37" d="M402.65,965.6c0.11,0.47-1.88,1.34-3.42,3.43c-1.6,2.05-1.96,4.29-2.42,4.28
																	c-0.43,0.08-0.79-2.78,1.17-5.35C399.91,965.38,402.63,965.13,402.65,965.6z"/>
															</g>
														</g>
													</g>
												</g>
											</g>
										</g>
									</g>
								</g>
							</g>
						</g>
						<g>
							<g>
								<g>
									<g>
										<g>
											<g>
												<g>
													<g>
														<g>
															<g>
																<path class="st37" d="M408.26,977.63c-0.42,0.11-1.1-2.33,0.05-5.03c1.13-2.71,3.3-3.8,3.5-3.4
																	c0.27,0.4-1.12,1.86-2.03,4.09C408.82,975.51,408.72,977.57,408.26,977.63z"/>
															</g>
														</g>
													</g>
												</g>
											</g>
										</g>
									</g>
								</g>
							</g>
						</g>
						<g>
							<g>
								<g>
									<g>
										<g>
											<g>
												<g>
													<g>
														<g>
															<g>
																<path class="st37" d="M389.25,947.81c-0.19,0.45-2.32-0.19-4.93,0.03c-2.62,0.17-4.64,1.13-4.88,0.72
																	c-0.27-0.35,1.69-2.19,4.77-2.42C387.28,945.89,389.47,947.42,389.25,947.81z"/>
															</g>
														</g>
													</g>
												</g>
											</g>
										</g>
									</g>
								</g>
							</g>
						</g>
					</g>
				</g>
			</g>
			<g>
				<g>
					<g>
						<path class="st37" d="M389.78,963.34c0.07,0.01,0.31-1.01,0.2-2.88c-0.14-1.85-0.7-4.62-2.52-7.44
							c-0.92-1.39-2.12-2.78-3.72-3.92c-0.77-0.54-1.98-1.14-3.21-0.56c-1.16,0.56-1.81,1.85-1.87,3.11
							c0.12,4.86,3.61,9.34,8.36,11.04c4.88,1.71,10.03-0.4,12.86-3.82c0.69-0.87,1.36-1.75,1.71-2.91
							c0.16-0.57,0.24-1.24,0.01-1.89c-0.22-0.64-0.73-1.15-1.29-1.37c-1.15-0.39-2.13-0.05-2.97,0.29
							c-0.83,0.4-1.54,0.81-2.22,1.26c-2.7,1.8-4.42,3.88-5.44,5.39c-1.02,1.52-1.38,2.49-1.31,2.53c0.21,0.22,1.97-3.73,7.25-7.04
							c1.27-0.73,2.94-1.78,4.29-1.31c0.59,0.24,0.82,0.94,0.54,1.76c-0.25,0.81-0.86,1.64-1.5,2.4c-2.58,3.02-7.23,4.85-11.51,3.34
							c-4.22-1.42-7.41-5.71-7.54-9.59c0.02-0.9,0.49-1.72,1.12-2.04c0.61-0.33,1.41-0.05,2.12,0.42c1.46,0.98,2.64,2.24,3.54,3.5
							c1.8,2.57,2.49,5.15,2.78,6.92C389.72,962.31,389.66,963.34,389.78,963.34z"/>
					</g>
				</g>
			</g>
			<g>
				<g>
					<g>
						<g>
							<g>
								<g>
									<polygon class="st36" points="313.13,949.08 314.75,961.22 313.67,988.62 277.98,989.49 276.71,961.22 280.77,944.43 
																			"/>
								</g>
							</g>
						</g>
					</g>
				</g>
			</g>
			<g>
				<g>
					<g>
						<g>
							<g>
								<g>
									<g>
										<path class="st37" d="M296.02,986.56c-0.22,0.01,0.3-8.37,1.15-18.72c0.85-10.35,1.72-18.75,1.93-18.76
											c0.22-0.01-0.3,8.37-1.15,18.72C297.11,978.15,296.24,986.55,296.02,986.56z"/>
									</g>
								</g>
							</g>
						</g>
					</g>
				</g>
			</g>
			<g>
				<g>
					<g>
						<g>
							<g>
								<g>
									<polygon class="st37" points="313.81,984.06 277.75,984.48 277.75,989.49 313.83,989.45 									"/>
								</g>
							</g>
						</g>
					</g>
				</g>
			</g>
			<g>
				<g>
					<g>
						<g>
							<g>
								<g>
									<g>
										<path class="st37" d="M277.84,968.31c-0.05-0.04,0.25-0.57,0.91-1.45c0.66-0.88,1.71-2.08,3.18-3.4
											c1.47-1.31,3.38-2.74,5.76-3.87c2.36-1.15,5.24-1.96,8.32-1.93c6.17,0.01,11.37,3.03,13.92,6.04
											c1.33,1.49,2.15,2.88,2.61,3.88c0.46,1,0.63,1.59,0.57,1.62c-0.2,0.11-1.06-2.23-3.74-4.97
											c-2.59-2.75-7.52-5.47-13.38-5.49c-5.84-0.03-10.65,2.92-13.57,5.3C279.45,966.48,277.99,968.43,277.84,968.31z"/>
									</g>
								</g>
							</g>
						</g>
					</g>
				</g>
			</g>
			<g>
				<g>
					<g>
						<g>
							<g>
								<g>
									<path class="st41" d="M295.87,184.57l-0.38,123.39l52.94,2.53l1.53-30.01c0,0,18.8,3.73,23.65-13.73
										c3.1-11.15,2.32-97.36,2.32-97.36L295.87,184.57z"/>
								</g>
							</g>
						</g>
					</g>
				</g>
				<g>
					<g>
						<g>
							<g>
								<g>
									<path class="st37" d="M382.9,178.07c-8.34,2.39-10.15,16.01-10.15,16.01l-13.08,28.89c-6.66-5.22-15.61-4.92-17.3,6.79
										c-1.22,8.46,9.3,10.17,9.3,10.17c-6.12,10.42-10.28,18.85-19.19,28.76c-9.65,10.73-15.05,11.81-25.52,11.98h-11.54
										c0,0-5.65-18.34-16.11-64.19c-11.61-50.87,48.55-44.32,59.7-57.3C357.17,138.03,409.18,170.55,382.9,178.07z"/>
								</g>
							</g>
						</g>
					</g>
				</g>
				<g>
					<g>
						<path class="st37" d="M280.41,221.28c-9.75-6.55-10.63-24.88-4.94-35.87c5.69-10.99,17.66-18.44,30.03-18.68
							c1.65-0.03,3.36,0.05,4.91-0.55c2.29-0.88,3.77-3.05,5.27-5c8.71-11.33,17.28-22.46,33.52-22.46c2.64,0,5.56,0,10.21,2.53
							c2.32,1.26,5.59,5.54,6.13,8.12c3.05-1.45,6.16-2.91,9.5-3.42c3.34-0.51,7.01,0.08,9.53,2.32c2.52,2.25,3.46,6.38,1.5,9.13
							c5.47-0.35,10.66,4.19,11.53,9.6c0.86,5.42-6.9,9.23-7.71,9.65c0,0,4.26,8.92-5.9,14.27c-4.09,2.15-9.41-0.44-10.01-0.75"/>
					</g>
				</g>
				<g>
					<g>
						<g>
							<path class="st42" d="M319.05,233.15c0.34-0.04,0.87,4.25-0.3,9.37c-1.14,5.13-3.45,8.77-3.74,8.59
								c-0.35-0.18,1.34-3.96,2.43-8.89C318.57,237.3,318.66,233.16,319.05,233.15z"/>
						</g>
					</g>
				</g>
				<g>
					<g>
						<g>
							<path class="st42" d="M325.46,227.09c0.36,0.02,0.43,4.1-0.49,9.02c-0.91,4.93-2.46,8.71-2.79,8.59
								c-0.36-0.12,0.58-4,1.48-8.84C324.56,231.04,325.07,227.07,325.46,227.09z"/>
						</g>
					</g>
				</g>
				<g>
					<g>
						<g>
							<path class="st42" d="M343.79,206.73c0.13,0.18-1.37,1.27-3.28,3.5c-1.92,2.21-4.11,5.66-5.7,9.85
								c-1.6,4.19-2.48,8.2-3.16,11.1c-0.67,2.9-1.12,4.7-1.31,4.67c-0.18-0.03-0.05-1.88,0.38-4.84c0.45-2.95,1.19-7.07,2.84-11.4
								c1.65-4.33,4.08-7.88,6.26-10.01C341.99,207.43,343.72,206.6,343.79,206.73z"/>
						</g>
					</g>
				</g>
				<g>
					<g>
						<g>
							<path class="st42" d="M351.2,192.86c0.16-0.04,0.7,1.19,1.03,3.34c0.34,2.14,0.34,5.19-0.46,8.42
								c-0.82,3.23-2.27,5.92-3.57,7.65c-1.3,1.74-2.36,2.57-2.48,2.46c-0.33-0.25,3.25-4.24,4.75-10.43
								C352.07,198.14,350.79,192.93,351.2,192.86z"/>
						</g>
					</g>
				</g>
				<g>
					<g>
						<g>
							<path class="st42" d="M288.03,223.68c-0.18,0.32-1.8-0.24-3.62-1.25c-1.82-1.02-3.15-2.1-2.97-2.43
								c0.18-0.32,1.8,0.24,3.62,1.26C286.88,222.27,288.21,223.36,288.03,223.68z"/>
						</g>
					</g>
				</g>
				<g>
					<g>
						<g>
							<path class="st42" d="M313.6,210.51c0.35,0.05,0.13,2.67-1.51,5.37c-1.63,2.71-3.84,4.12-4.05,3.84
								c-0.25-0.3,1.41-2.04,2.9-4.53C312.46,212.7,313.22,210.42,313.6,210.51z"/>
						</g>
					</g>
				</g>
				<g>
					<g>
						<g>
							<path class="st42" d="M321.47,206.28c0.34,0.08-0.21,3.21-2.36,6.41c-2.12,3.22-4.79,4.95-5,4.66
								c-0.25-0.3,1.89-2.38,3.88-5.4C320.01,208.95,321.09,206.17,321.47,206.28z"/>
						</g>
					</g>
				</g>
				<g>
					<g>
						<g>
							<path class="st42" d="M360.55,154.61c-0.09,0.11-0.99-0.75-2.9-1.84c-1.91-1.05-4.96-2.2-8.87-2.29
								c-3.87-0.12-8.63,0.8-13.01,3.5c-4.39,2.69-8.27,7.07-11.08,12.35c-2.05,3.83-3.47,7.82-4.5,11.57l-0.21,0.78l-0.71-0.37
								c-3.93-2.06-8.09-2.97-11.81-3.02c-3.73-0.1-7.02,0.58-9.61,1.45c-5.23,1.79-7.71,4.14-7.85,3.93
								c-0.04-0.05,0.55-0.64,1.77-1.57c1.23-0.92,3.16-2.1,5.81-3.12c2.64-1,6.02-1.81,9.9-1.79c3.87-0.03,8.24,0.84,12.4,2.99
								l-0.92,0.4c1.01-3.83,2.44-7.93,4.56-11.88c2.91-5.44,6.97-10,11.62-12.77c4.66-2.78,9.65-3.63,13.69-3.39
								c4.08,0.23,7.21,1.57,9.1,2.79c0.93,0.65,1.63,1.17,2.03,1.61C360.38,154.35,360.58,154.58,360.55,154.61z"/>
						</g>
					</g>
				</g>
				<g>
					<g>
						<g>
							<path class="st42" d="M388.39,161.32c-0.09-0.02,1.47-0.4,3.04,1.38c0.71,0.85,1.37,2.2,1.22,3.86
								c-0.16,1.66-1.31,3.37-3.08,4.4c-1.74,1.07-4.13,1.42-6.43,0.88c-2.32-0.5-4.55-1.73-6.63-3.22
								c-2.1-1.47-4.13-3.18-6.49-4.45c-2.36-1.28-5.02-2.22-7.82-2.75c-5.63-1.05-11.23-0.42-15.96,1.09
								c-4.75,1.52-8.7,3.81-11.8,6c-6.18,4.44-9.23,8.16-9.42,7.97c-0.06-0.05,0.64-1.01,2.09-2.61c1.46-1.57,3.67-3.8,6.77-6.13
								c3.08-2.32,7.08-4.76,11.97-6.4c4.88-1.63,10.69-2.33,16.59-1.24c2.94,0.56,5.73,1.55,8.2,2.92c2.5,1.36,4.55,3.14,6.57,4.59
								c2.01,1.47,4.07,2.64,6.17,3.14c2.08,0.53,4.14,0.26,5.71-0.62c1.58-0.85,2.61-2.29,2.8-3.67c0.2-1.39-0.3-2.64-0.88-3.45
								C389.76,161.34,388.32,161.47,388.39,161.32z"/>
						</g>
					</g>
				</g>
			</g>
			<g>
				<path class="st41" d="M546.88,219.91l-43.16,86.75l-101.79,5.19l4.18,56.17c0,0,113.45-7.53,124.88-20.96
					c12.42-14.59,41.85-104.14,41.88-104.42c0-0.04,3.55-10.49,3.51-10.5L546.88,219.91z"/>
				<g>
					<g>
						<g>
							<path class="st41" d="M541.21,232.91l8.73-18.93c3.46-11.98,14.82-34.88,14.82-34.88s19.46-21.81,22.03-21.07
								c2.57,0.74,3.86,3.34,1.23,6.66c-2.63,3.32-12.16,19.66-12.16,19.66s5.45,1.02,6.1,4.54c0.65,3.52-0.22,5.37-0.22,5.37
								s5.12,1.42,6.8,3.94c1.68,2.52,2.11,4.87,2.11,4.87s2.81-0.11,3.86,3.34c1.04,3.45,0.84,6.73,0.84,6.73
								s-6.81,11.38-10.12,13.21c-3.31,1.83-7.76,4.05-7.76,4.05l-7.2,19.19"/>
						</g>
					</g>
				</g>
			</g>
			<g>
				<path class="st37" d="M415.79,793.61c0.31-3.45,0.49-6.11,0.49-7.77L426.9,616.2c0,0-8.93-49.54-13.16-62.68l-37.99-14.7
					l-50.6,19.71c-0.34-4.08-0.54-6.59-0.54-6.59l-74.54,25.76c0,0-1.93,50.85,0,66.33c0.62,4.97,2.57,17.82,4.93,32.95h0
					c0,0,2.4,32.89,2.89,34.73c1.81,6.71,2.22,23.13,2.22,39.59c0,20.92,1.14,45.8,2.44,57.63c1.3,11.83,1.94,141.92,1.94,141.92h55
					l7.06-207.21c1.18-22.21,2.96-56.16,4.11-80.73l12.92,76.51c0,2.81,7.86,46.55,7.86,46.55s-2.88,20.52-3.37,41.51
					c-0.91,38.57-5.44,123.38-5.44,123.38h53.84l0,0C396.48,950.85,412.65,828.37,415.79,793.61L415.79,793.61L415.79,793.61z"/>
				<path class="st42" d="M425.06,606.03c-0.07,0.12-2.02-0.78-4.96-2.64c-2.94-1.86-6.81-4.74-10.64-8.43
					c-3.82-3.7-6.83-7.48-8.78-10.35c-1.96-2.87-2.93-4.8-2.81-4.87c0.15-0.1,1.37,1.67,3.47,4.39c2.1,2.72,5.16,6.36,8.92,10
					c3.77,3.64,7.5,6.58,10.29,8.59C423.34,604.73,425.15,605.88,425.06,606.03z"/>
				<path class="st42" d="M325.33,626.5c-0.07,0.04-0.44-0.57-1.05-1.69c-0.62-1.12-1.42-2.79-2.32-4.9
					c-1.79-4.21-3.8-10.26-5.01-17.16c-1.19-6.9-1.35-13.27-1.09-17.84c0.13-2.29,0.31-4.13,0.52-5.39
					c0.19-1.26,0.34-1.96,0.42-1.95c0.19,0.02-0.07,2.83-0.12,7.36c-0.05,4.53,0.23,10.81,1.41,17.62
					c1.19,6.81,3.05,12.81,4.63,17.05C324.3,623.86,325.5,626.42,325.33,626.5z"/>
				<g>
					<path class="st42" d="M337.06,700.73c-0.08,0.01-0.33-1.04-0.71-2.95c-0.4-2.16-0.89-4.88-1.49-8.12
						c-1.2-7.12-2.77-16.49-4.51-26.84c-3.04-19.03-5.11-31.99-6.07-38.01c0.25-0.1,1.32,4.15,2.6,10.99
						c1.31,6.85,2.96,16.33,4.68,26.83c1.71,10.49,3.17,20.01,4.16,26.9c0.44,3.26,0.81,6.01,1.11,8.18
						C337.05,699.64,337.14,700.72,337.06,700.73z"/>
				</g>
			</g>
			<g>
				<path class="st41" d="M207.26,418.68c0,0-7.27,51.13-8.62,69.04c-0.82,10.78,10.14,25.1,18.5,26.15
					c8.49,1.06,36.55,2.72,36.55,2.72l2.34-32.07l-0.73-6.38l-8.75-1.65l1.09-51.61L207.26,418.68z"/>
				<g>
					<path class="st43" d="M248.03,426.49c0.08,0,0.2,0.99,0.33,2.78c0.14,1.79,0.25,4.39,0.31,7.6c0.15,6.42,0,15.3-0.55,25.09
						c-0.55,9.79-1.33,18.62-1.97,25.01c-0.32,3.19-0.61,5.77-0.83,7.55c-0.23,1.78-0.39,2.76-0.47,2.76c-0.08-0.01-0.08-1,0-2.8
						c0.12-2.05,0.27-4.58,0.45-7.59c0.43-6.67,0.99-15.38,1.61-25c0.55-9.76,0.83-18.61,0.91-25.01c0.03-3,0.05-5.54,0.07-7.59
						C247.9,427.48,247.95,426.49,248.03,426.49z"/>
				</g>
			</g>
			<g>
				<path class="st42" d="M466.17,306.65c1.44-0.37-76.86-8.38-76.86-8.38c-21.22-2.48-38.37-1.68-38.37-1.68h-53.43
					c0,0-64.75,19.1-75.44,36.7l-27.75,83.19l54.86,8.29l0,0l6.84,59.77c0,0-6.81,69.21-6.81,79.27c0,10.06,0.86,13.9,0.86,13.9
					s108.72-24.45,135.75-15.65c27.03,8.8,34.96,11.21,34.96,11.21s-1.84-24.28-3.85-40.95l-6.27-83.4l-4.96-68.19l60.47-6.98
					L466.17,306.65z"/>
				<path class="st37" d="M247.21,426.81c-0.19,0.02-0.69-3.52-1.83-9.18c-1.14-5.66-3.03-13.42-5.93-21.73
					c-2.9-8.31-6.22-15.58-8.79-20.75c-1.22-2.4-2.25-4.44-3.09-6.11c-0.74-1.44-1.12-2.26-1.05-2.3c0.07-0.04,0.58,0.7,1.44,2.07
					c0.87,1.37,2.05,3.4,3.43,5.95c2.77,5.1,6.23,12.36,9.16,20.74c2.93,8.38,4.7,16.23,5.64,21.96c0.47,2.87,0.77,5.19,0.91,6.81
					C247.25,425.91,247.29,426.81,247.21,426.81z"/>
				<path class="st37" d="M352.21,449.04c0.04,0.01-0.06,0.39-0.28,1.1c-0.28,0.83-0.62,1.85-1.03,3.08
					c-0.45,1.34-1.03,2.96-1.78,4.81c-0.74,1.86-1.54,4-2.59,6.29c-1.98,4.64-4.6,10.04-7.78,15.9c-3.23,5.83-7.04,12.1-11.44,18.42
					c-4.43,6.29-9.02,12.02-13.39,17.06c-4.42,4.99-8.59,9.31-12.27,12.76c-1.79,1.77-3.53,3.25-5.02,4.58
					c-1.48,1.34-2.81,2.44-3.91,3.32c-1.01,0.81-1.85,1.47-2.54,2.02c-0.59,0.45-0.91,0.67-0.93,0.64
					c-0.03-0.03,0.25-0.31,0.78-0.82c0.65-0.59,1.43-1.31,2.39-2.18c1.05-0.93,2.33-2.07,3.77-3.46c1.44-1.38,3.13-2.89,4.88-4.69
					c3.59-3.51,7.68-7.86,12.03-12.87c4.3-5.05,8.84-10.76,13.24-17.02c4.37-6.28,8.18-12.5,11.45-18.27
					c3.21-5.8,5.9-11.14,7.97-15.71c1.09-2.26,1.94-4.37,2.73-6.2c0.81-1.82,1.45-3.42,1.96-4.73c0.49-1.2,0.9-2.19,1.23-2.99
					C352,449.38,352.18,449.03,352.21,449.04z"/>
				<path class="st44" d="M311.81,482.97c-5.85,9.28-11.39,20.59-15.13,30.91c17.1-13.92,30.75-32.04,39.39-52.32
					C325.82,465.49,317.66,473.68,311.81,482.97z"/>
				<g>
					<path class="st23" d="M390.68,352.25c0,0.04-0.58,0.05-1.68,0.02c-1.22-0.04-2.82-0.1-4.81-0.17
						c-4.17-0.19-10.21-0.42-17.67-0.62c-14.92-0.42-35.55-0.53-58.31,0.48c-22.76,1.03-43.3,2.99-58.13,4.74
						c-7.41,0.87-13.41,1.63-17.54,2.2c-1.98,0.25-3.56,0.45-4.77,0.6c-1.09,0.12-1.67,0.17-1.68,0.13
						c-0.01-0.04,0.56-0.17,1.64-0.37c1.2-0.21,2.78-0.49,4.74-0.83c4.12-0.71,10.1-1.6,17.51-2.59
						c14.81-1.98,35.38-4.07,58.18-5.11c22.79-1.01,43.46-0.76,58.39-0.12c7.47,0.32,13.5,0.67,17.67,1.01
						c1.99,0.17,3.58,0.3,4.8,0.4C390.11,352.13,390.69,352.21,390.68,352.25z"/>
				</g>
				<g>
					<path class="st23" d="M388.73,303.78c0,0.04-0.49,0.08-1.42,0.1c-1.06,0.01-2.4,0.03-4.06,0.05c-3.52,0-8.62,0.05-14.91,0.17
						c-12.59,0.22-29.97,0.95-49.12,2.53c-19.15,1.59-36.44,3.6-48.95,5.08c-6.14,0.73-11.16,1.32-14.82,1.76
						c-1.65,0.18-2.98,0.32-4.04,0.43c-0.92,0.09-1.41,0.11-1.42,0.07c-0.01-0.04,0.47-0.15,1.38-0.31c1.05-0.17,2.37-0.39,4-0.66
						c3.48-0.55,8.53-1.29,14.77-2.14c12.49-1.71,29.78-3.85,48.96-5.44c19.18-1.58,36.6-2.17,49.21-2.18
						c6.31,0,11.41,0.07,14.93,0.22c1.65,0.07,3,0.13,4.06,0.18C388.24,303.69,388.73,303.74,388.73,303.78z"/>
				</g>
				<g>
					<path class="st23" d="M423.33,376.01c-0.07,0.05-0.69-0.81-1.75-2.4c-1.09-1.58-2.49-3.98-4.05-7.02
						c-1.58-3.04-3.2-6.8-4.71-11.08c-1.45-4.3-2.77-9.12-3.69-14.29c-0.87-5.17-1.25-10.16-1.33-14.7
						c-0.01-4.54,0.24-8.62,0.71-12.02c0.45-3.4,0.96-6.13,1.46-7.98c0.47-1.86,0.76-2.87,0.84-2.85c0.23,0.05-0.77,4.16-1.44,10.93
						c-0.36,3.38-0.52,7.42-0.45,11.91c0.14,4.48,0.55,9.4,1.41,14.51c0.91,5.1,2.17,9.87,3.55,14.13c1.44,4.25,2.95,8,4.42,11.06
						C421.21,372.34,423.53,375.88,423.33,376.01z"/>
				</g>
				<g>
					<path class="st23" d="M449.12,372.83c-0.08,0.04-0.53-0.79-1.3-2.31c-0.78-1.52-1.77-3.78-2.85-6.63
						c-2.18-5.69-4.5-13.88-5.54-23.15c-1.03-9.28-0.58-17.78,0.3-23.81c0.43-3.02,0.89-5.45,1.32-7.1
						c0.41-1.66,0.67-2.56,0.75-2.54c0.21,0.04-0.58,3.73-1.22,9.74c-0.65,6.01-0.95,14.4,0.06,23.57c1.04,9.17,3.19,17.28,5.14,23
						C447.73,369.32,449.32,372.74,449.12,372.83z"/>
				</g>
				<g>
					<path class="st23" d="M242.05,401.76c-0.01,0.17-2.35,0.17-6.12,0.13c-4.2-0.05-9.2-0.11-14.73-0.18
						c-5.76-0.09-10.98-0.27-14.75-0.54c-3.77-0.26-6.09-0.57-6.08-0.73c0.01-0.17,2.35-0.17,6.12-0.13
						c4.2,0.05,9.2,0.11,14.73,0.18c5.76,0.09,10.97,0.27,14.74,0.54C239.74,401.29,242.06,401.6,242.05,401.76z"/>
				</g>
				<g>
					<path class="st23" d="M223.69,370.11c-0.04,0.32-3.03,0.36-6.75,0.32c-3.73-0.05-6.76-0.55-6.72-0.9
						c0.04-0.32,3.03-0.36,6.75-0.32C220.7,369.25,223.73,369.76,223.69,370.11z"/>
				</g>
				<g>
					<path class="st23" d="M404.8,404.78c0.01,0.34-35.34,1.39-78.93,2.34c-43.61,0.96-78.96,1.46-78.97,1.12
						c-0.01-0.34,35.33-1.38,78.94-2.34C369.44,404.95,404.79,404.44,404.8,404.78z"/>
				</g>
				<g>
					<path class="st23" d="M346.05,460.93c0,0.08-1.29,0.21-3.65,0.38c-2.35,0.17-5.76,0.34-9.97,0.49
						c-8.42,0.31-20.07,0.46-32.93,0.15c-12.86-0.32-24.49-1.05-32.88-1.77c-4.2-0.36-7.59-0.7-9.93-0.98
						c-2.34-0.28-3.63-0.47-3.62-0.56c0.01-0.08,1.31-0.05,3.66,0.08c2.57,0.15,5.92,0.35,9.95,0.59c8.4,0.5,20.01,1.09,32.85,1.41
						c12.83,0.31,24.46,0.3,32.88,0.21c4.04-0.04,7.4-0.08,9.97-0.1C344.74,460.81,346.05,460.84,346.05,460.93z"/>
				</g>
				<g>
					<path class="st23" d="M409.67,461.52c-0.01,0.17-3.27,0.06-8.53-0.21c-5.58-0.3-12.68-0.68-20.53-1.1
						c-7.86-0.4-14.96-0.77-20.54-1.06c-5.26-0.28-8.51-0.51-8.5-0.68c0-0.08,0.82-0.14,2.29-0.18c1.47-0.03,3.61-0.04,6.24-0.01
						c5.27,0.06,12.54,0.28,20.57,0.7c8.03,0.42,15.28,0.97,20.53,1.46c2.62,0.24,4.74,0.47,6.21,0.66
						C408.87,461.29,409.67,461.43,409.67,461.52z"/>
				</g>
				<g>
					<path class="st23" d="M308.11,518.41c0,0.34-12.21,0.45-27.26,0.25c-15.05-0.2-27.25-0.63-27.24-0.97s12.21-0.45,27.26-0.25
						C295.92,517.65,308.11,518.08,308.11,518.41z"/>
				</g>
				<g>
					<path class="st23" d="M412.71,519.1c-0.01,0.08-1.32,0.02-3.69-0.16c-2.58-0.22-5.95-0.5-10.02-0.85
						c-8.46-0.74-20.14-1.72-33.05-2.63c-12.92-0.91-24.63-1.57-33.1-2.02c-4.07-0.23-7.45-0.42-10.04-0.56
						c-2.37-0.15-3.68-0.27-3.68-0.35c0-0.08,1.32-0.12,3.69-0.12c2.38,0,5.81,0.06,10.06,0.18c8.49,0.23,20.22,0.76,33.15,1.67
						c12.93,0.91,24.61,2.03,33.05,2.99c4.22,0.48,7.63,0.9,9.98,1.23C411.43,518.79,412.72,519.02,412.71,519.1z"/>
				</g>
				<g>
					<path class="st23" d="M420.1,566.96c-0.02,0.03-0.55-0.27-1.53-0.89c-0.98-0.62-2.44-1.51-4.37-2.56
						c-3.84-2.11-9.63-4.83-17.18-6.99c-7.53-2.19-16.8-3.76-27.17-4.27c-10.37-0.55-21.81-0.07-33.8,0.61
						c-12.01,0.66-23.44,1.31-33.79,2.33c-10.35,1.04-19.63,2.39-27.31,4.03c-7.69,1.63-13.82,3.36-18,4.75
						c-2.11,0.63-3.69,1.27-4.8,1.62c-1.1,0.37-1.68,0.55-1.7,0.51c-0.02-0.04,0.54-0.29,1.61-0.74c1.08-0.42,2.64-1.14,4.74-1.84
						c4.14-1.54,10.26-3.4,17.97-5.15c7.7-1.76,17.01-3.21,27.38-4.31c10.38-1.08,21.83-1.77,33.84-2.43
						c12-0.68,23.49-1.13,33.93-0.52c10.44,0.57,19.78,2.26,27.35,4.57c7.58,2.29,13.37,5.15,17.17,7.4
						c1.9,1.12,3.33,2.07,4.27,2.77C419.64,566.56,420.12,566.93,420.1,566.96z"/>
				</g>
				<g>
					<path class="st37" d="M389.51,303.78c0.23,0.11-3.02,3.33-4.25,10.13c-0.63,3.35-0.64,7.46,0.08,11.93
						c0.69,4.48,2.04,9.32,3.41,14.41c2.79,10.17,5.74,19.26,7.97,25.8c1.07,3.09,1.96,5.68,2.68,7.74
						c0.63,1.83,0.95,2.85,0.87,2.89c-0.08,0.03-0.55-0.94-1.31-2.71c-0.76-1.78-1.82-4.38-3.05-7.62
						c-2.45-6.48-5.54-15.56-8.34-25.77c-1.37-5.1-2.7-9.98-3.35-14.57c-0.67-4.57-0.57-8.83,0.19-12.26
						c0.73-3.45,2.04-6.04,3.12-7.66C388.64,304.46,389.46,303.73,389.51,303.78z"/>
				</g>
			</g>
		</g>
		<g>
			<path class="st37" d="M939.4,989.45c0,0.34-208.87,0.61-466.47,0.61c-257.69,0-466.51-0.27-466.51-0.61s208.83-0.61,466.51-0.61
				C730.53,988.84,939.4,989.11,939.4,989.45z"/>
		</g>
	</g>
</g>
</svg>
