<?xml version="1.0" encoding="utf-8"?>
<!-- Generator: Adobe Illustrator 25.0.0, SVG Export Plug-In . SVG Version: 6.00 Build 0)  -->
<svg version="1.1" xmlns="http://www.w3.org/2000/svg" xmlns:xlink="http://www.w3.org/1999/xlink" x="0px" y="0px"
	 viewBox="0 0 480 708" style="enable-background:new 0 0 480 708;" xml:space="preserve">
<style type="text/css">
	.st0{fill:#908983;}
	.st1{fill:#AF3D3D;}
	.st2{fill:#272422;}
	.st3{fill:#4C4642;}
	.st4{fill:#EB5151;}
	.st5{fill:#EAB77D;}
	.st6{fill:#5093B1;}
	.st7{fill:#78B7CF;}
	.st8{fill:#2D788F;}
	.st9{fill:#DBC2BC;}
	.st10{fill:#ECD4CE;}
	.st11{fill:#EBD9D6;}
	.st12{fill:#E7A2BC;}
	.st13{fill:#D890B1;}
	.st14{fill:#FF5A6C;}
	.st15{fill:#D54C60;}
	.st16{fill:#122D41;}
	.st17{fill:#C39565;}
	.st18{fill:#83679B;}
	.st19{fill:#635074;}
	.st20{fill:#C8C1A7;}
	.st21{fill:#8F6450;}
	.st22{fill:#E7E0C6;}
	.st23{fill:#FFFFFF;}
	.st24{fill:#982B2B;}
	.st25{fill:#D44F4F;}
	.st26{clip-path:url(#SVGID_2_);fill:#FFFFFF;}
	.st27{fill:#998675;}
	.st28{fill:#42210B;}
	.st29{clip-path:url(#SVGID_4_);}
	.st30{fill:#E2E2E2;}
	.st31{opacity:0.3;fill:#F6FEFF;stroke:#000000;stroke-width:7.9795;stroke-miterlimit:10;}
	.st32{fill:#161D21;}
	.st33{font-family:'Calibri-Bold';}
	.st34{font-size:37px;}
</style>
<g id="Capa_1">
</g>
<g id="Capa_2">
	<g>
		<g>
			<polygon class="st27" points="392.3,44.92 392.3,3.67 141.07,3.67 141.07,374.72 430.99,374.72 430.99,44.92 			"/>
			<polygon class="st28" points="392.43,3.67 392.43,44.9 430.99,44.92 			"/>
		</g>
	</g>
	<g>
		<defs>
			<rect id="SVGID_3_" x="-43.79" y="-139.96" width="664.95" height="664.95"/>
		</defs>
		<clipPath id="SVGID_2_">
			<use xlink:href="#SVGID_3_"  style="display:none;overflow:visible;"/>
		</clipPath>
		<g style="clip-path:url(#SVGID_2_);">
			<path class="st30" d="M229.12,365.31c5.47,18.88-5.41,38.62-24.29,44.09c-18.88,5.47-38.62-5.41-44.09-24.29
				c-5.47-18.88,5.41-38.62,24.29-44.09C203.91,335.55,223.65,346.43,229.12,365.31z"/>
			<g>
				<path class="st31" d="M133.35,235.89c27.45,84.27,117.99,130.32,202.24,102.88c84.25-27.44,130.32-117.98,102.88-202.24
					c-27.44-84.26-118-130.31-202.25-102.88C151.97,61.1,105.91,151.64,133.35,235.89z"/>
				<path class="st30" d="M462.23,128.79c31.7,97.38-21.52,202-118.9,233.74l0,0c-97.39,31.7-202.02-21.52-233.74-118.89l0,0
					C77.89,146.26,131.11,41.62,228.49,9.9l0,0C325.87-21.82,430.51,31.42,462.23,128.79L462.23,128.79z M442.37,135.27
					C414.07,48.91,321.41,1.78,234.96,29.77l0,0c-86.35,28.29-133.48,120.94-105.49,207.39l0,0
					c28.29,86.36,120.95,133.5,207.39,105.49l0,0C423.21,314.37,470.35,221.72,442.37,135.27L442.37,135.27z"/>
				<path class="st32" d="M136.23,398.63l-0.07-0.09l15.9-32.26l75.15,36.54l-29.56,60.42l0.01,0.01L80.67,702.37
					c0,0-26.02-0.99-45.11-10.27c-18.48-8.99-30.04-26.27-30.04-26.27L136.23,398.63z"/>
			</g>
		</g>
	</g>
	<text transform="matrix(1 0 0 1 164.0596 157.3428)"><tspan x="0" y="0" class="st23 st33 st34">No contamos</tspan><tspan x="0" y="44.4" class="st23 st33 st34">con información</tspan><tspan x="0" y="88.8" class="st23 st33 st34">en esta sección</tspan></text>
</g>
</svg>
