<?xml version="1.0" encoding="utf-8"?>
<!-- Generator: Adobe Illustrator 25.0.0, SVG Export Plug-In . SVG Version: 6.00 Build 0)  -->
<svg version="1.1" xmlns="http://www.w3.org/2000/svg" xmlns:xlink="http://www.w3.org/1999/xlink" x="0px" y="0px"
	 viewBox="0 0 716 1308" style="enable-background:new 0 0 716 1308;" xml:space="preserve">
<style type="text/css">
	.st0{fill:#908983;}
	.st1{fill:#AF3D3D;}
	.st2{fill:#272422;}
	.st3{fill:#4C4642;}
	.st4{fill:#EB5151;}
	.st5{fill:#EAB77D;}
	.st6{fill:#5093B1;}
	.st7{fill:#78B7CF;}
	.st8{fill:#2D788F;}
	.st9{fill:#DBC2BC;}
	.st10{fill:#ECD4CE;}
	.st11{fill:#EBD9D6;}
	.st12{fill:#E7A2BC;}
	.st13{fill:#D890B1;}
	.st14{fill:#FF5A6C;}
	.st15{fill:#D54C60;}
	.st16{fill:#122D41;}
	.st17{fill:#C39565;}
	.st18{fill:#83679B;}
	.st19{fill:#635074;}
	.st20{fill:#C8C1A7;}
	.st21{fill:#8F6450;}
	.st22{fill:#E7E0C6;}
	.st23{fill:#FFFFFF;}
	.st24{fill:#982B2B;}
	.st25{fill:#D44F4F;}
	.st26{clip-path:url(#SVGID_2_);fill:#FFFFFF;}
	.st27{fill:none;}
	.st28{fill:#998675;}
	.st29{fill:#42210B;}
	.st30{clip-path:url(#SVGID_6_);}
	.st31{fill:#E2E2E2;}
	.st32{opacity:0.3;fill:#F6FEFF;stroke:#000000;stroke-width:7.9795;stroke-miterlimit:10;}
	.st33{fill:#161D21;}
</style>
<g id="Capa_1">
	<g>
		<g>
			<g>
				<polygon class="st0" points="486.78,955.95 499.4,949.5 499.4,806.58 485.53,806.58 				"/>
			</g>
			<g>
				<path class="st1" d="M617.63,966.36c25.48,2.96,33.77,21.92,37.92,45.62c6.51,33.77,6.51,70.5,6.51,104.26
					c0,27.85,0,58.05-8.29,84.12c-4.15,11.25-7.7,25.47-19.55,31.4c-5.33,2.36-23.7,5.92-26.07,0.59L617.63,966.36z"/>
			</g>
			<g>
				<path class="st2" d="M595.12,1237.61l-4.14,30.66c0,0-1.91,2.86-6.14,0l-1.84-30.66H595.12z"/>
			</g>
			<g>
				<path class="st2" d="M523.43,1248.85c0-13.56-10.99-24.55-24.56-24.55c-13.56,0-24.55,10.99-24.55,24.55
					c0,13.56,10.99,24.55,24.55,24.55C512.43,1273.41,523.43,1262.42,523.43,1248.85z"/>
			</g>
			<g>
				<path class="st0" d="M513.82,1248.85c0-8.26-6.69-14.94-14.95-14.94c-8.26,0-14.95,6.69-14.95,14.94
					c0,8.26,6.69,14.95,14.95,14.95C507.13,1263.8,513.82,1257.11,513.82,1248.85z"/>
			</g>
			<g>
				<path class="st3" d="M574.55,922.09c1.57-3.33,2.54-8.03,1.76-11.75c-1.17-5.29-8.02-7.83-12.53-8.81
					c-8.61-1.96-24.08-1.56-27.8,7.63c-1.18,2.94-2.74,12.73-0.78,14.29L574.55,922.09z"/>
			</g>
			<g>
				<path class="st4" d="M614.2,945.21c0-5.64,2.51-17.56-0.63-21.32c-3.76-4.39-27.6-3.76-33.25-4.39c-13.8-0.63-27.6-0.63-40.77,0
					c-12.55,0.63-28.23-3.13-40.15-0.63c-18.82,4.39-11.29,70.89-11.29,87.82c0,33.88-1.26,68.38-1.26,102.25
					c0,30.11-3.76,59.59-4.39,89.07c0,9.41-5.65,32.62,0,40.14c6.27,8.16,30.11,4.4,38.89,4.4c20.7,0.63,41.4,1.25,62.1,0
					c10.04-0.63,20.7-1.25,23.84-13.17c2.51-7.53-2.51-16.31,1.88-23.83L614.2,945.21z"/>
			</g>
			<g>
				<path class="st4" d="M611.62,1237.18c0,3.47,2.26,6.29,5.05,6.29l0,0c2.79,0,5.06-2.82,5.06-6.29V925.03
					c0-3.48-2.27-6.31-5.06-6.31l0,0c-2.79,0-5.05,2.83-5.05,6.31V1237.18z"/>
			</g>
			<g>
				<path class="st1" d="M602.28,1237.18c0,3.47,2.27,6.29,5.05,6.29l0,0c2.79,0,5.06-2.82,5.06-6.29V925.03
					c0-3.48-2.27-6.31-5.06-6.31l0,0c-2.79,0-5.05,2.83-5.05,6.31V1237.18z"/>
			</g>
			<g>
				<path class="st3" d="M518.54,1231.26c2.51,2.51,4.71,5.64,5.96,8.78c3.77,7.52-1.88,6.27-8.16,6.27c-6.9,0-13.8,0-20.7,0
					c-5.02,0-14.43,1.88-17.88-2.51c-3.45-4.7-0.63-13.79,0-18.81c0.62-6.28,1.25-12.55,1.88-18.82c0.31-4.39-0.63-14.11,1.89-17.56
					c5.01-6.58,10.97,2.51,13.48,6.59L518.54,1231.26z"/>
			</g>
			<g>
				<path class="st3" d="M560.37,1056.74c2.79-4.96,4.03-18.9-2.48-21.38c-5.89-2.17-9.6,2.17-10.85,7.13
					c-0.61,3.1-2.16,13.94-0.61,15.18L560.37,1056.74z"/>
			</g>
			<g>
				<path class="st3" d="M548.02,1133.58c-2.79,4.96-4.03,18.9,2.48,21.37c5.88,2.17,9.61-2.16,10.84-7.13
					c0.62-3.1,2.17-13.94,0.62-15.18L548.02,1133.58z"/>
			</g>
			<g>
				<path class="st2" d="M557.35,1051.77c3.45,0.51,3.29,1.54,5.93,4.3c3.15,3.29,1.96,8.88-3.21,9.66
					c-7.13,1.24-14.56-4.03-16.73,6.5c-1.86,8.37-1.86,17.67-2.17,26.03c-0.31,5.58-2.17,15.49,0.62,20.45
					c3.41,6.5,18.41-0.6,22.97,5.58c5.26,7.13-2.48,11.46-8.68,11.46c-7.43,0-19.87-2.79-24.52-8.68
					c-8.37-11.16-5.88-28.81-4.03-41.83c1.33-9.31,2.73-20.2,9.13-27.55C540.9,1052.82,551.09,1050.85,557.35,1051.77z"/>
			</g>
		</g>
		<g>
			<g>
				<g>
					<g>
						<g>
							<path class="st5" d="M168.67,886.01c2.99,30.7,17.97,66.64,6.74,96.58c-12.73,35.94-29.2,65.88-29.2,104.81
								c0,35.19,3.74,69.62,5.99,104.06c0.75,11.23-4.49,36.68-0.75,46.42c4.49,8.98,20.21,8.98,27.7,2.24l99.3-393.67
								c-55.17-4.29-94.54-16.36-109.76-21.72C166.4,845.07,166.81,865.98,168.67,886.01z"/>
						</g>
						<g>
							<path class="st6" d="M283.97,824.62c1.6-1.97,12.22-1.97,13.82,0l1.92,8.07c31.93,1.15,68.17-0.53,107.42-7.34
								c-1.38-12.55-3.78-24.88-7.52-36.67c-9.73-31.45-33.69-71.13-72.62-65.14c-20.34,3.59-57.87,3.59-78.21,0
								c-38.93-5.99-62.89,33.69-72.62,65.14c-2.25,7.1-4,14.39-5.35,21.81c16.93,5.79,56.65,17.41,111.36,21.27L283.97,824.62z"/>
						</g>
						<g>
							<path class="st7" d="M408.29,840.13c-0.24-4.95-0.62-9.88-1.16-14.78c-39.25,6.81-75.49,8.49-107.42,7.34l3.58,15.09
								C334.67,848.69,370.06,846.85,408.29,840.13z"/>
						</g>
						<g>
							<path class="st7" d="M170.81,810.5c-0.86,4.71-1.57,9.46-2.11,14.25c15.22,5.35,54.59,17.43,109.76,21.72l3.71-14.69
								C227.46,827.91,187.73,816.28,170.81,810.5z"/>
						</g>
						<g>
							<path class="st5" d="M423.57,1191.47c2.24-34.44,5.99-68.88,5.99-104.06c0-38.93-16.47-68.88-29.2-104.81
								c-11.23-29.94,3.74-65.89,6.74-96.58c1.4-15.01,1.96-30.5,1.2-45.88c-38.24,6.72-73.63,8.56-105,7.65l93.32,392.35
								c7.49,6.74,23.21,6.74,27.7-2.24C428.06,1228.15,422.82,1202.7,423.57,1191.47z"/>
						</g>
					</g>
					<g>
						<g>
							<path class="st8" d="M235.05,795.67c7.95,6.29,16.41,11.84,25.23,16.65c4.42,2.37,8.93,4.58,13.59,6.32
								c1.17,0.42,2.33,0.87,3.51,1.22l1.76,0.56l1.77,0.46c2.36,0.6,4.77,0.92,7.18,0.98c4.82,0.14,9.6-0.95,14.23-2.72
								c2.32-0.88,4.62-1.83,6.97-2.85c1.16-0.53,2.41-0.95,3.6-1.4c1.2-0.43,2.39-0.86,3.6-1.27c9.62-3.28,19.33-6.04,28.76-9.73
								l-0.04,0.02c1.38-0.85,2.94-1.24,4.15-2.26c-0.53,0.59-1.21,1.03-1.88,1.44c-0.67,0.41-1.34,0.82-1.96,1.28l-0.01,0.01
								l-0.03,0.02c-9.04,4.67-18.69,8.05-28.09,11.7l-3.52,1.37c-1.16,0.47-2.31,0.89-3.44,1.44c-2.28,1.05-4.62,2.15-7.03,3.07
								c-4.79,1.87-10.06,3.22-15.39,3.02c-2.65-0.09-5.29-0.47-7.83-1.14l-1.9-0.52l-1.85-0.61c-1.24-0.39-2.43-0.9-3.63-1.36
								c-4.78-1.95-9.34-4.32-13.7-6.97C250.37,809.1,242.18,802.91,235.05,795.67z"/>
						</g>
						<g>
							<path class="st8" d="M215.09,791.18c3.44,3.49,7.11,6.59,10.92,9.51c0.98,0.7,1.91,1.44,2.89,2.14
								c0.98,0.69,1.95,1.4,2.94,2.07c1.01,0.65,1.98,1.36,2.98,2.02l3.03,1.93l3.06,1.89l3.11,1.81c2.07,1.22,4.2,2.33,6.32,3.47
								c4.27,2.22,8.62,4.27,13.16,6.11c-4.88-0.57-9.64-2.03-14.2-3.87c-2.3-0.9-4.5-1.99-6.71-3.08
								c-1.09-0.58-2.17-1.17-3.24-1.77l-3.18-1.88l-3.08-2.05c-1.01-0.71-2.01-1.42-3-2.16c-1.94-1.52-3.88-3.05-5.67-4.75
								C220.82,799.22,217.5,795.47,215.09,791.18z"/>
						</g>
						<g>
							<path class="st8" d="M316.91,822.12c4.14-0.55,8.15-1.26,12.07-2.28c3.92-1.02,7.72-2.36,11.49-3.86
								c3.77-1.5,7.5-3.15,11.28-4.8c3.77-1.64,7.59-3.28,11.58-4.54c-3.4,2.43-6.87,4.66-10.47,6.74
								c-3.6,2.07-7.31,3.99-11.22,5.53c-3.9,1.55-7.99,2.72-12.17,3.33C325.29,822.86,321.02,822.89,316.91,822.12z"/>
						</g>
						<g>
							<path class="st8" d="M279.48,822.62c-0.65-5.2-1.03-10.4-1.32-15.59c-0.18-2.6-0.25-5.19-0.38-7.79l-0.25-7.79l-0.13-7.79
								c0.01-2.6-0.05-5.2,0.01-7.8c0.05-5.2,0.17-10.41,0.58-15.63c0.91,5.16,1.47,10.35,1.89,15.55c0.24,2.6,0.35,5.2,0.52,7.8
								l0.29,7.81c0.03,2.6,0.08,5.21,0.08,7.81c-0.04,2.6-0.03,5.21-0.15,7.81C280.44,812.21,280.13,817.42,279.48,822.62z"/>
						</g>
						<g>
							<path class="st8" d="M300.44,821.13c0.36-4.84,0.55-9.6,0.64-14.37c0.01-2.39,0.07-4.77,0.04-7.15
								c-0.03-1.19,0-2.38-0.01-3.58l-0.07-3.58l-0.06-3.58l-0.11-3.58l-0.25-7.16l-0.67-14.4c1.52,4.61,2.47,9.39,3.13,14.18
								c0.36,2.4,0.56,4.81,0.78,7.22c0.17,2.42,0.27,4.84,0.35,7.26c0,2.42,0,4.85-0.1,7.27c-0.14,2.42-0.27,4.84-0.57,7.26
								C302.98,811.73,302.09,816.55,300.44,821.13z"/>
						</g>
						<g>
							<path class="st8" d="M185.14,778.2c2.86-1.17,5.35-2.7,7.6-4.51c2.23-1.83,4.22-3.91,5.97-6.18
								c1.75-2.27,3.25-4.74,4.51-7.36c1.24-2.63,2.21-5.4,2.88-8.41c0.65,3.04,0.33,6.27-0.57,9.29c-0.89,3.03-2.38,5.89-4.31,8.41
								c-1.94,2.51-4.33,4.7-7.09,6.28C191.4,777.32,188.25,778.33,185.14,778.2z"/>
						</g>
						<g>
							<path class="st8" d="M381.8,771.21c-2.62,1.07-5.8,0.71-8.45-0.52c-2.68-1.23-4.92-3.16-6.79-5.28
								c-1.87-2.13-3.39-4.5-4.66-6.96c-1.26-2.47-2.31-5.01-3.06-7.71c1.91,2.05,3.52,4.25,5.16,6.38c1.62,2.14,3.23,4.25,4.94,6.2
								c1.71,1.95,3.53,3.77,5.61,5.19C376.61,769.96,379,770.94,381.8,771.21z"/>
						</g>
					</g>
				</g>
				<g>
					<g>
						<path class="st9" d="M95.37,1280.13c-3.47,1.24-4.46-0.81-6.3,3.11c-1.44,3.05-0.77,7.34-0.42,10.55
							c0.13,1.16,0.26,2.35,0.78,3.4c0.6,1.21,1.64,2.13,2.72,2.93c14.08,10.39,37.44,9.39,52.97,3.16
							c6.97-2.8,9.89-9.98,13.72-16.03c5.42-8.55,17.16-9.84,23.31-17.61c5.04-6.38,6.61-20.75-5.4-18.42
							C176.76,1251.21,95.39,1280.12,95.37,1280.13z"/>
					</g>
					<g>
						<g>
							<g>
								<path class="st10" d="M139.62,1260.41c-4.95-4.17-14.74-9.01-21.39-9.14c-2.96-0.06-6.8,1.65-10.88,4.27
									c-3.99,3.45-8.01,6.77-11.61,9.84c-5.1,4.33-8.64,15.31-7.85,21.6c0,0,3.14,4.14,7.85,5.71c4.72,1.96,20.59,5,25.7,5
									c9.43,0,14.91-1.07,23.56-5c2.06-0.95,3.95-2.66,5.73-4.58c-0.77-4.42-1.91-8.72-3.24-13.62
									C146.34,1270.17,143.15,1263.38,139.62,1260.41z"/>
							</g>
							<g>
								<g>
									<g>
										<path class="st9" d="M118.59,1252.71c-1.75,1.05-3.26,2.34-4.76,3.67c-1.51,1.31-2.95,2.69-4.44,4.05
											c-2.95,2.72-5.92,5.41-8.57,8.25c-0.64,0.7-1.3,1.45-1.77,2.14c-0.46,0.66-0.83,1.48-1.15,2.34
											c-0.66,1.74-1.02,3.68-1.46,5.63c-0.21,0.96-0.4,2.01-0.7,3.01l-0.88,2.91c-0.6,1.91-1.15,3.81-1.27,5.85
											c-0.58-1.99-0.43-4.13-0.25-6.16l0.37-3.01c0.12-0.98,0.21-1.93,0.29-2.96c0.16-2.03,0.47-4.1,1.06-6.2
											c0.31-1.05,0.74-2.1,1.39-3.13c0.66-0.98,1.33-1.76,2.04-2.55c2.86-3.07,6.06-5.61,9.34-8.01c1.63-1.2,3.33-2.35,5.09-3.4
											C114.71,1254.13,116.56,1253.11,118.59,1252.71z"/>
									</g>
									<g>
										<path class="st9" d="M105.74,1295.19c-0.91-3.96-1.06-8.15-0.31-12.25c0.73-4.1,2.35-8.08,4.65-11.56
											c2.28-3.51,5.17-6.52,8.31-9.14c3.15-2.62,6.56-4.85,10.19-6.67c-2.87,2.89-5.78,5.62-8.51,8.48
											c-2.72,2.86-5.24,5.85-7.35,9.06c-2.11,3.22-3.78,6.69-4.9,10.4C106.69,1287.22,106.14,1291.14,105.74,1295.19z"/>
									</g>
									<g>
										<path class="st9" d="M136.8,1261.28c-1.25,3.04-3.09,5.76-4.86,8.4c-1.77,2.66-3.58,5.23-5.01,7.89
											c-0.72,1.34-1.29,2.67-1.72,4.09c-0.44,1.43-0.73,2.94-1.04,4.49c-0.57,3.08-1.01,6.4-2.36,9.41
											c0.05-3.26-0.22-6.39-0.09-9.67c0.04-1.64,0.21-3.31,0.59-4.98c0.39-1.68,1.04-3.34,1.84-4.82
											c1.62-2.97,3.68-5.55,5.87-7.93C132.18,1265.76,134.47,1263.57,136.8,1261.28z"/>
									</g>
									<g>
										<path class="st9" d="M145.36,1272.7c-1.04,1.76-2.07,3.34-2.96,4.95c-0.9,1.61-1.66,3.23-2.29,4.9
											c-0.63,1.67-1.15,3.4-1.6,5.21c-0.46,1.8-0.82,3.68-1.37,5.64c-0.77-1.89-1.1-3.9-1.1-5.93c0.01-2.03,0.37-4.1,1.11-6.04
											c0.74-1.94,1.85-3.74,3.25-5.24C141.81,1274.69,143.47,1273.46,145.36,1272.7z"/>
									</g>
								</g>
								<g>
									<path class="st11" d="M92.53,1278.06c1.33,1.39,2.99,2.18,4.71,2.78c1.72,0.6,3.51,1.01,5.32,1.4l10.98,2.26
										c3.65,0.69,7.3,1.32,10.98,1.72c3.69,0.39,7.38,0.56,11.2,0.4c-3.56,1.45-7.47,2-11.31,2.06
										c-3.86,0.05-7.71-0.35-11.47-1.08c-1.88-0.37-3.74-0.81-5.58-1.33l-2.72-0.8c-0.91-0.26-1.82-0.54-2.73-0.86
										c-1.83-0.61-3.64-1.38-5.34-2.38c-0.83-0.54-1.65-1.1-2.36-1.79C93.51,1279.74,92.9,1278.94,92.53,1278.06z"/>
								</g>
							</g>
						</g>
						<g>
							<g>
								<path class="st12" d="M185.03,1239.06c-3.69,3.15-6.28-2.53-10.04-1.34c-2.69,0.85-3.84,1.47-6.43,2.14
									c-2.82,0.73-7.89,8.68-9.66,11.02c-3.2,4.22-9.28,7.85-8.64,13.23c0.67,5.6,4.28,11.31,5.82,16.71
									c0.07,0.24,0.14,0.49,0.21,0.73c0.4-0.47,0.81-0.93,1.21-1.35c3.04-3.2,5.88-6.05,9.28-8.93
									c5.72-4.84,14.63-6.46,18.04-13.76c2.04-4.08,0.46-8.96-0.18-13.19C184.44,1243,184.74,1241.08,185.03,1239.06z"/>
							</g>
							<g>
								<g>
									<path class="st13" d="M182.86,1229.28c-0.31-0.11-0.63-0.19-0.96-0.22c-3.05-0.35-6.72,2.34-9.44,3.03
										c-1.87,0.48-2.98,0.42-3.67,0c-1.64,1.67-3.37,3.18-4.51,4.19c-3.57,3.13-8.91,7.64-12.16,11.16
										c-4.02,4.36-7.95,9.08-11.74,13.72c3.21,3.24,6.04,9.33,7.11,13.32c1.33,4.9,2.46,9.2,3.24,13.62
										c1.96-2.13,3.79-4.53,5.55-6.56c-0.07-0.24-0.14-0.49-0.21-0.73c-1.54-5.4-5.15-11.11-5.82-16.71
										c-0.64-5.38,15.84-22.45,18.66-23.18c2.58-0.67,4.8-0.22,7.5-1.07c3.76-1.18,4.93,2.36,8.61-0.8
										C185.63,1235.01,186.23,1230.5,182.86,1229.28z"/>
								</g>
								<g>
									<path class="st12" d="M164.28,1236.29c1.15-1.01,2.87-2.52,4.51-4.19c-1.56-0.96-0.93-3.84-1.82-6.91
										c-2.02-6.99-10.19-12.7-17.05-14.01c-11.77-2.26-19.46,1.74-19.52,14.02c-0.04,9.07-11.41,20.27-23.06,30.35
										c4.07-2.62,7.91-4.33,10.88-4.27c6.65,0.12,16.44,4.96,21.39,9.14c0.26,0.22,0.52,0.5,0.77,0.76
										c3.79-4.64,7.72-9.36,11.74-13.72C155.37,1243.93,160.71,1239.42,164.28,1236.29z"/>
								</g>
							</g>
						</g>
					</g>
					<g>
						<g>
							<path class="st10" d="M115.48,1243.08c-2.12,0.65-4.98,4.27-4.28,7.13c2.36,0.21,4.88-1.31,7.37-1.47
								c2.97-0.2,5.94-0.02,8.85,0.65c4.91,1.14,10.35,3.51,14.54,6.71c3.3,2.52,7.59,13.58,11.12,6.97c3.34-6.23-3.3-11-7.26-14.71
								C138.4,1241.4,120.81,1240.44,115.48,1243.08z"/>
						</g>
						<g>
							<path class="st10" d="M123.79,1232.8c-2.12,0.65-4.98,4.27-4.28,7.12c2.36,0.21,4.88-1.31,7.37-1.47
								c2.97-0.19,5.95-0.02,8.85,0.65c4.92,1.14,10.35,3.51,14.54,6.71c3.3,2.53,7.58,13.58,11.13,6.97
								c3.34-6.23-3.3-10.99-7.27-14.71C146.71,1231.12,129.13,1230.16,123.79,1232.8z"/>
						</g>
					</g>
				</g>
				<g>
					<g>
						<path class="st9" d="M480.86,1280.14c3.46,1.24,4.46-0.81,6.3,3.12c1.44,3.06,0.77,7.35,0.41,10.56
							c-0.12,1.16-0.26,2.35-0.77,3.4c-0.6,1.21-1.64,2.13-2.73,2.93c-14.09,10.4-37.48,9.39-53.03,3.16
							c-6.98-2.81-9.9-9.98-13.74-16.05c-5.42-8.56-17.18-9.86-23.33-17.63c-5.05-6.38-6.62-20.77,5.41-18.44
							C399.38,1251.2,480.84,1280.14,480.86,1280.14z"/>
					</g>
					<g>
						<g>
							<g>
								<path class="st10" d="M436.56,1260.41c4.95-4.17,14.75-9.02,21.41-9.15c2.97-0.05,6.81,1.65,10.89,4.28
									c3.99,3.45,8.02,6.78,11.62,9.85c5.11,4.33,8.65,15.33,7.86,21.62c0,0-3.14,4.14-7.86,5.72c-4.73,1.97-20.61,5-25.73,5
									c-9.44,0-14.92-1.07-23.58-5c-2.07-0.95-3.96-2.66-5.74-4.59c0.77-4.42,1.91-8.72,3.24-13.63
									C429.83,1270.19,433.02,1263.38,436.56,1260.41z"/>
							</g>
							<g>
								<g>
									<g>
										<path class="st9" d="M457.61,1252.7c2.03,0.4,3.88,1.42,5.67,2.42c1.76,1.05,3.47,2.2,5.1,3.4
											c3.28,2.4,6.49,4.94,9.35,8.02c0.71,0.8,1.39,1.57,2.04,2.55c0.65,1.03,1.08,2.09,1.39,3.13c0.59,2.1,0.9,4.17,1.06,6.2
											c0.08,1.03,0.17,1.98,0.29,2.97l0.37,3.01c0.19,2.03,0.34,4.18-0.25,6.16c-0.13-2.04-0.67-3.94-1.28-5.85l-0.88-2.91
											c-0.3-0.99-0.49-2.05-0.7-3.01c-0.44-1.95-0.8-3.89-1.46-5.63c-0.32-0.87-0.69-1.69-1.15-2.34
											c-0.48-0.69-1.13-1.45-1.77-2.14c-2.64-2.84-5.63-5.53-8.57-8.25c-1.49-1.36-2.94-2.74-4.45-4.05
											C460.87,1255.05,459.36,1253.75,457.61,1252.7z"/>
									</g>
									<g>
										<path class="st9" d="M470.47,1295.23c-0.4-4.05-0.95-7.98-2.09-11.69c-1.12-3.72-2.8-7.19-4.91-10.41
											c-2.11-3.22-4.63-6.22-7.36-9.08c-2.73-2.86-5.65-5.59-8.52-8.48c3.64,1.82,7.05,4.06,10.2,6.68
											c3.14,2.62,6.04,5.64,8.32,9.15c2.3,3.49,3.92,7.47,4.65,11.58C471.53,1287.07,471.38,1291.26,470.47,1295.23z"/>
									</g>
									<g>
										<path class="st9" d="M439.38,1261.28c2.33,2.29,4.62,4.48,6.8,6.89c2.19,2.38,4.25,4.96,5.87,7.93
											c0.8,1.48,1.45,3.14,1.84,4.82c0.38,1.67,0.55,3.34,0.59,4.98c0.13,3.29-0.15,6.42-0.1,9.68
											c-1.35-3.01-1.78-6.33-2.36-9.41c-0.31-1.54-0.6-3.06-1.04-4.49c-0.44-1.42-1-2.75-1.73-4.09
											c-1.44-2.67-3.25-5.24-5.02-7.9C442.48,1267.04,440.63,1264.32,439.38,1261.28z"/>
									</g>
									<g>
										<path class="st9" d="M430.81,1272.71c1.89,0.76,3.55,1.99,4.96,3.49c1.4,1.5,2.52,3.31,3.25,5.25
											c0.74,1.94,1.11,4.01,1.11,6.05c-0.01,2.04-0.33,4.05-1.11,5.94c-0.54-1.97-0.9-3.84-1.36-5.65
											c-0.45-1.81-0.96-3.54-1.6-5.21c-0.64-1.68-1.4-3.3-2.3-4.9C432.88,1276.05,431.85,1274.47,430.81,1272.71z"/>
									</g>
								</g>
								<g>
									<path class="st11" d="M483.7,1278.08c-0.37,0.89-0.98,1.69-1.69,2.38c-0.71,0.7-1.53,1.26-2.36,1.79
										c-1.7,0.99-3.51,1.77-5.34,2.38c-0.91,0.32-1.82,0.61-2.73,0.87l-2.72,0.8c-1.84,0.52-3.71,0.96-5.59,1.33
										c-3.77,0.73-7.62,1.13-11.48,1.08c-3.85-0.06-7.76-0.61-11.32-2.06c3.83,0.16,7.52-0.01,11.21-0.4
										c3.69-0.4,7.34-1.02,10.99-1.72l10.99-2.26c1.81-0.39,3.6-0.8,5.33-1.4C480.7,1280.26,482.36,1279.47,483.7,1278.08z"/>
								</g>
							</g>
						</g>
						<g>
							<g>
								<path class="st12" d="M391.1,1239.04c3.69,3.16,6.29-2.53,10.05-1.35c2.7,0.85,3.84,1.48,6.43,2.14
									c2.83,0.73,7.9,8.69,9.67,11.03c3.2,4.22,9.29,7.86,8.65,13.24c-0.67,5.6-4.28,11.32-5.83,16.72
									c-0.06,0.24-0.14,0.49-0.21,0.73c-0.41-0.47-0.81-0.93-1.21-1.36c-3.05-3.2-5.88-6.05-9.29-8.94
									c-5.73-4.84-14.64-6.46-18.06-13.77c-2.04-4.09-0.46-8.97,0.18-13.2C391.69,1242.98,391.4,1241.07,391.1,1239.04z"/>
							</g>
							<g>
								<g>
									<path class="st13" d="M393.27,1229.25c0.31-0.11,0.63-0.19,0.96-0.22c3.06-0.35,6.73,2.34,9.45,3.03
										c1.87,0.48,2.99,0.43,3.68,0c1.64,1.68,3.37,3.19,4.52,4.19c3.57,3.13,8.92,7.65,12.16,11.18
										c4.02,4.36,7.96,9.09,11.75,13.73c-3.22,3.24-6.04,9.34-7.12,13.33c-1.33,4.91-2.46,9.22-3.24,13.63
										c-1.96-2.13-3.79-4.53-5.55-6.56c0.07-0.25,0.14-0.49,0.21-0.73c1.54-5.41,5.16-11.12,5.83-16.72
										c0.64-5.38-15.86-22.47-18.68-23.2c-2.59-0.67-4.81-0.23-7.5-1.08c-3.77-1.18-4.93,2.36-8.62-0.8
										C390.5,1234.98,389.9,1230.47,393.27,1229.25z"/>
								</g>
								<g>
									<path class="st12" d="M411.87,1236.26c-1.15-1.01-2.88-2.51-4.52-4.19c1.56-0.96,0.94-3.84,1.82-6.91
										c2.02-7,10.21-12.71,17.06-14.03c11.78-2.27,19.48,1.74,19.53,14.03c0.04,9.08,11.43,20.28,23.08,30.38
										c-4.08-2.62-7.92-4.33-10.89-4.28c-6.66,0.12-16.46,4.97-21.41,9.15c-0.26,0.22-0.52,0.5-0.77,0.76
										c-3.79-4.65-7.73-9.37-11.75-13.73C420.79,1243.92,415.44,1239.4,411.87,1236.26z"/>
								</g>
							</g>
						</g>
					</g>
					<g>
						<g>
							<path class="st10" d="M460.72,1243.06c2.12,0.66,4.99,4.28,4.29,7.14c-2.36,0.21-4.89-1.31-7.38-1.48
								c-2.98-0.19-5.95-0.02-8.85,0.65c-4.92,1.14-10.36,3.52-14.55,6.72c-3.3,2.52-7.59,13.59-11.14,6.98
								c-3.34-6.24,3.31-11.01,7.27-14.73C437.77,1241.39,455.38,1240.42,460.72,1243.06z"/>
						</g>
						<g>
							<path class="st10" d="M452.4,1232.77c2.12,0.65,4.99,4.27,4.29,7.13c-2.36,0.21-4.89-1.31-7.38-1.47
								c-2.98-0.19-5.95-0.02-8.85,0.65c-4.92,1.14-10.36,3.52-14.55,6.72c-3.3,2.53-7.59,13.6-11.14,6.98
								c-3.34-6.24,3.31-11.01,7.28-14.72C429.46,1231.1,447.06,1230.13,452.4,1232.77z"/>
						</g>
					</g>
				</g>
			</g>
			<g>
				<g>
					<g>
						<g>
							<path class="st14" d="M159.48,549.53c11.15-24.54,21.91-46.17,39.66-63.34l-14.96-0.29c-15.72,13.48-95.83,83.1-53.16,101.82
								c-23.21,20.21-34.44,72.62-26.2,101.07c5.46,19.58,18.09,33.09,34.08,41.62C96.39,682.03,135.84,600.86,159.48,549.53z"/>
						</g>
						<g>
							<path class="st15" d="M261.29,513.59c-10.48-11.23-24.71-23.21-38.93-26.95l-23.23-0.46c-17.75,17.18-28.51,38.8-39.66,63.34
								c-23.64,51.33-63.08,132.5-20.57,180.88c21.31,11.36,48.6,13.88,72.98,10.03c51.66-8.24,69.63-53.16,79.36-100.32
								C300.23,595.2,291.99,548.78,261.29,513.59z"/>
						</g>
					</g>
					<g>
						<path class="st16" d="M161.56,458.73c-4.12,5.61-13.47,27.33-6.36,32.57c11.61,8.23,29.2-25.08,31.45-32.94L161.56,458.73z"/>
					</g>
					<g>
						<g>
							<path class="st5" d="M175.77,484.97c10.69-3.2,26.74-27.85,28.34-39.07c-8.55-4.81-25.64-19.76-30.45-28.84
								c-6.94-11.75-18.69-19.76-25.1-32.05c-5.34-11.22-9.61-23.5-13.89-34.71c-4.81-12.82-28.84-48.61-33.12-60.36
								c-2.7-7.41-25.1,1.07-20.83,11.21l33.12,111.63L175.77,484.97z"/>
						</g>
						<g>
							<g>
								<path class="st5" d="M89.28,312.81c4.56-0.48,10.08-3.36,13.92-5.76c6.24-3.84,4.32-8.16,2.64-14.4
									c-1.44-6-2.4-12.72-4.56-18.48c-2.16-5.28-6.96-9.12-9.6-14.64c-3.12-6.72-5.52-13.2-7.92-20.16
									c-1.2-4.08-1.92-15.84-7.92-12c-10.08,6.24,1.44,30.48,4.56,38.16c0.48,1.2,2.88,4.8,2.4,6c-0.48,1.2-6.96,3.84-8.4,4.8
									c-6,3.12-11.52,7.44-12.96,14.4c-0.72,4.32,0.24,9.6,1.68,13.44c1.2,3.6,6.96,11.28,11.28,10.32L89.28,312.81z"/>
							</g>
							<g>
								<path class="st5" d="M61.2,278.74c-11.28-0.96-9.6,16.32-8.4,23.04c1.2,6.24,5.04,14.4,12.24,15.36
									c6.72,0.96,7.2-4.08,7.2-9.36L61.2,278.74z"/>
								<g>
									<path class="st17" d="M61.2,278.74c-1.33-0.01-2.64,0.24-3.77,0.83c-1.13,0.58-2.02,1.49-2.64,2.56
										c-0.63,1.07-1.03,2.27-1.3,3.51c-0.27,1.23-0.42,2.51-0.47,3.79c-0.1,2.56,0.06,5.15,0.39,7.72
										c0.16,1.28,0.39,2.56,0.62,3.83c0.24,1.24,0.55,2.45,0.96,3.64c0.81,2.37,1.93,4.65,3.39,6.57
										c1.45,1.93,3.34,3.44,5.49,4.07c1.04,0.3,2.28,0.5,3.31,0.41c1.05-0.09,1.79-0.47,2.33-1.14c0.53-0.72,0.85-1.81,1.04-2.99
										c0.19-1.19,0.24-2.46,0.26-3.76l0.09,0.5c-0.86-2.38-1.7-4.76-2.51-7.17c-0.82-2.41-1.65-4.82-2.44-7.28
										c-0.81-2.44-1.6-4.93-2.4-7.43L61.2,278.74z M61.2,278.74c1.05,2.24,2.11,4.54,3.15,6.87c1.04,2.33,2.09,4.69,3.12,7.08
										c1.05,2.38,2.06,4.8,3.08,7.24c1.03,2.43,2.03,4.88,3.01,7.34l0.09,0.22l0,0.28c0.02,1.34,0.03,2.72-0.14,4.16
										c-0.17,1.42-0.52,2.98-1.54,4.42c-0.55,0.68-1.23,1.35-2.05,1.72c-0.39,0.24-0.81,0.32-1.22,0.47
										c-0.41,0.11-0.81,0.15-1.22,0.22c-1.6,0.14-3.03-0.09-4.52-0.49c-2.95-0.9-5.33-2.95-7.02-5.25
										c-1.73-2.3-2.86-4.9-3.66-7.56c-0.41-1.32-0.7-2.7-0.91-4.06c-0.2-1.34-0.32-2.69-0.42-4.04c-0.18-2.7-0.2-5.42,0.17-8.13
										c0.36-2.69,1.05-5.47,2.74-7.75c0.82-1.14,2.02-2.03,3.32-2.5C58.5,278.52,59.9,278.52,61.2,278.74z"/>
								</g>
							</g>
							<g>
								<path class="st5" d="M70.8,271.54c-2.88-1.44-6.96,0-9.12,2.16c-4.8,4.8-2.16,14.16-0.24,19.92
									c1.68,5.76,5.04,14.88,11.28,17.28c4.56,1.92,10.32-2.4,10.56-6.96L70.8,271.54z"/>
								<g>
									<path class="st17" d="M70.8,271.54c-1.3-0.52-2.72-0.47-4.01-0.14c-1.3,0.33-2.52,0.95-3.56,1.74
										c-0.52,0.4-1.01,0.83-1.37,1.36c-0.42,0.48-0.71,1.06-1,1.62c-0.52,1.16-0.77,2.44-0.86,3.73c-0.1,1.3,0.02,2.62,0.2,3.94
										c0.17,1.32,0.46,2.63,0.8,3.94c0.34,1.3,0.75,2.6,1.19,3.89l1.31,3.93c0.89,2.56,1.97,5.04,3.25,7.34
										c1.3,2.27,2.9,4.38,4.9,5.69c0.26,0.15,0.5,0.32,0.76,0.46l0.8,0.38c0.26,0.11,0.5,0.18,0.75,0.27
										c0.26,0.03,0.5,0.11,0.76,0.12c1.04,0.07,2.16-0.19,3.18-0.72c2.05-1.03,3.71-3.13,3.91-5.2l0.09,0.59
										c-0.97-2.68-1.97-5.35-2.9-8.06c-0.94-2.71-1.91-5.4-2.82-8.15c-0.93-2.73-1.85-5.48-2.75-8.27
										C72.56,277.2,71.67,274.39,70.8,271.54z M70.8,271.54c1.21,2.55,2.4,5.13,3.57,7.76c1.18,2.62,2.34,5.26,3.49,7.93
										c1.17,2.66,2.28,5.36,3.42,8.05c1.15,2.69,2.23,5.42,3.34,8.14l0.11,0.27l-0.02,0.32c-0.09,1.75-0.77,3.34-1.72,4.65
										c-0.96,1.31-2.2,2.37-3.64,3.13c-1.43,0.75-3.09,1.21-4.83,1.11c-0.43-0.02-0.86-0.12-1.29-0.19
										c-0.41-0.12-0.83-0.25-1.21-0.4l-1.08-0.5c-0.35-0.18-0.68-0.41-1.02-0.62c-2.64-1.79-4.4-4.3-5.82-6.83
										c-1.41-2.55-2.41-5.25-3.26-7.95l-1.19-4.01c-0.39-1.36-0.74-2.73-1.02-4.13c-0.56-2.79-0.92-5.69-0.49-8.62
										c0.22-1.45,0.61-2.92,1.37-4.23c0.41-0.64,0.83-1.26,1.37-1.79c0.49-0.57,1.11-1.01,1.73-1.39
										c1.25-0.77,2.65-1.25,4.07-1.43C68.1,270.61,69.59,270.84,70.8,271.54z"/>
								</g>
							</g>
							<g>
								<path class="st5" d="M80.16,265.3c-13.44-1.44-8.64,14.64-6.24,21.84c2.16,6,5.04,13.44,11.28,16.56
									c6.96,3.6,7.2-4.56,6.24-9.6c-0.24-2.4-0.72-5.04-1.68-7.2L80.16,265.3z"/>
								<g>
									<path class="st17" d="M80.16,265.3c-1.36-0.03-2.68,0.1-3.93,0.48c-1.25,0.36-2.3,1.13-3.01,2.11
										c-0.71,0.99-1.04,2.22-1.19,3.46c-0.14,1.25-0.09,2.54,0.06,3.82c0.32,2.56,0.97,5.11,1.76,7.62
										c0.8,2.52,1.7,4.98,2.73,7.42c1.03,2.41,2.18,4.75,3.59,6.83c1.43,2.07,3.16,3.87,5.26,4.99c1.02,0.58,2.16,1.07,2.91,1
										c0.34-0.09,0.62-0.09,0.84-0.37c0.14-0.07,0.23-0.3,0.36-0.44c0.11-0.2,0.2-0.42,0.3-0.65c0.35-0.99,0.47-2.22,0.49-3.45
										c0.01-1.24-0.1-2.51-0.31-3.75l-0.01-0.09l0-0.04c-0.22-2.49-0.6-4.94-1.52-7.15c-0.96-2.34-1.9-4.68-2.82-7.07
										C83.83,275.25,82.01,270.38,80.16,265.3z M80.16,265.3c2.36,4.38,4.74,8.97,7.08,13.67c1.18,2.34,2.34,4.72,3.49,7.12
										c1.25,2.51,1.8,5.23,2.11,7.87l-0.02-0.12c0.29,1.4,0.47,2.8,0.51,4.25c0.03,1.45-0.06,2.93-0.58,4.49
										c-0.15,0.39-0.32,0.79-0.53,1.18c-0.28,0.39-0.47,0.79-0.88,1.12c-0.19,0.17-0.37,0.35-0.58,0.5
										c-0.23,0.13-0.46,0.25-0.7,0.37c-0.23,0.13-0.48,0.2-0.73,0.24c-0.25,0.05-0.5,0.1-0.75,0.14
										c-0.46,0.01-0.93-0.02-1.38-0.07l-1.22-0.31c-0.72-0.29-1.46-0.58-2.08-0.96c-1.31-0.71-2.5-1.64-3.52-2.68
										c-1.03-1.03-1.96-2.16-2.74-3.35c-1.6-2.37-2.73-4.93-3.7-7.49c-0.48-1.28-0.93-2.55-1.37-3.86
										c-0.42-1.32-0.77-2.61-1.1-3.95c-0.65-2.65-1.2-5.36-1.28-8.16c-0.04-1.39,0.01-2.81,0.3-4.21c0.32-1.39,0.86-2.8,1.85-3.9
										c0.98-1.11,2.36-1.79,3.73-2C77.46,264.93,78.86,265.07,80.16,265.3z"/>
								</g>
							</g>
							<g>
								<path class="st5" d="M95.52,284.97c0.48,10.08-11.04,11.52-18.24,16.8c-4.56,3.36-15.36,9.6-6.96,14.4
									c5.28,3.12,10.32,1.68,15.6,0c5.28-1.44,11.76-2.16,16.32-5.28c6-4.32,5.52-11.28,3.84-17.76"/>
								<path class="st17" d="M95.52,284.97l0.08,1.56c0.02,0.53-0.09,1.04-0.14,1.58c-0.18,1.05-0.56,2.07-1.09,3.02
									c-1.07,1.9-2.77,3.36-4.5,4.58c-3.53,2.39-7.4,4.03-10.69,6.26c-3.17,2.47-6.89,4.74-9.24,7.6c-0.56,0.71-1,1.45-1.14,2.09
									c-0.13,0.63-0.01,1.1,0.41,1.66c0.87,1.1,2.8,2.1,4.46,2.63c1.73,0.54,3.58,0.63,5.48,0.37c1.91-0.25,3.81-0.8,5.8-1.4
									c2.11-0.6,4.14-0.95,6.16-1.39c2.01-0.43,3.99-0.86,5.89-1.45c1.88-0.6,3.73-1.38,5.23-2.5c0.77-0.55,1.44-1.24,2.04-1.97
									c0.56-0.76,1.07-1.58,1.42-2.49c0.77-1.79,0.99-3.82,1.01-5.84c-0.02-2.04-0.27-4.09-0.63-6.14
									c0.68,1.96,1.23,3.99,1.5,6.09c0.24,2.09,0.22,4.29-0.42,6.41c-0.3,1.07-0.82,2.07-1.4,3.02c-0.64,0.92-1.36,1.8-2.22,2.53
									c-1.71,1.51-3.72,2.43-5.72,3.22c-4.01,1.56-8.24,2.17-12,3.37c-1.96,0.65-4.05,1.27-6.25,1.59
									c-2.2,0.33-4.58,0.27-6.82-0.41c-1.11-0.35-2.17-0.85-3.15-1.41c-0.98-0.58-2.01-1.27-2.84-2.38
									c-0.41-0.55-0.75-1.23-0.94-1.97c-0.16-0.75-0.13-1.53,0.02-2.23c0.34-1.39,1.06-2.43,1.81-3.31
									c1.52-1.76,3.26-3.03,4.98-4.27c0.86-0.61,1.73-1.2,2.59-1.77l1.27-0.85l1.37-0.88c3.71-2.23,7.67-3.53,11.2-5.5
									c1.76-0.97,3.4-2.15,4.59-3.74C94.84,289.07,95.44,287.05,95.52,284.97z"/>
							</g>
						</g>
					</g>
					<g>
						<g>
							<path class="st5" d="M462.9,779.91c2.99,4.49,4.49,10.48,11.23,10.48c23.96,0.75-1.5-28.45-5.24-36.69
								c-14.22-30.7-20.21-65.88-32.94-97.33c-6.74-17.97-20.96-30.7-28.45-48.66c-7.49-17.97-9.73-37.43-13.48-56.15
								c-3.74-16.47-6.74-35.19-13.48-50.16c-7.49-15.72-30.7-25.46-40.43-5.24c-3.74,7.49-5.99,16.47-1.5,23.96l44.21,111.19
								L462.9,779.91z"/>
						</g>
						<g>
							<path class="st18" d="M348.35,557.31c7.49,0,14.48,0,21.47-1.5c7.98-2,27.95-8.98,30.45-17.97c0,0-9.98-23.46-12.98-29.45
								c-4.99-10.48-9.48-21.46-20.46-26.45c-9.48-4.49-28.45-7.98-36.44,1L348.35,557.31z"/>
						</g>
					</g>
					<g>
						<path class="st14" d="M359.62,556.87c8.23-14.22,5.21-74.93,0.72-80.54c-3.75-4.12-20.21-10.11-25.08-5.24
							c-1.5,1.12,0,12.11-0.38,13.98L359.62,556.87z"/>
					</g>
					<g>
						<g>
							<path class="st18" d="M176.16,759.7c26.95,15.72,71.87,14.23,101.82,14.97c21.71,0.75,41.93,0.75,62.89-3.74
								c14.22-2.99,35.94-2.99,47.92-10.48c1.5-1.5,4.49-1.5,5.99-1.5l0.75-0.75c-5.99-15.72-11.23-31.45-16.47-47.16
								c-5.99-15.72-15.72-29.95-20.96-45.67c-10.48-32.94,1.5-59.14,3-92.09c0.75-16.47-5.99-32.19-11.23-47.91
								c-3.74-14.23-5.99-29.95-8.23-44.92c-1.5-9.73,0.25-8.49-8.73-11.48c-8.98-2.25-19.72-2.74-28.7-2.74
								c-14.97-0.75-32.19-2.25-47.17-5.99c-7.6-1.66-19.11,0.39-23.94-6.81c-12-17.89-35.22-15.27-49.02-23.44
								c-1.5,18.71-4.91,59.08-28.86,61.33c17.22,8.98,30.7,17.59,37.43,37.81c5.99,17.22,10.48,35.19,14.97,52.41
								c8.98,33.69,5.99,64.39-0.75,98.08c-3.74,15.72-5.24,36.68-14.22,50.16L176.16,759.7z"/>
						</g>
						<g>
							<g>
								<path class="st19" d="M231.56,651.64c-0.01-3.29,0.45-6.54,1.12-9.73c0.65-3.2,1.54-6.33,2.56-9.4
									c1.03-3.08,2.18-6.1,3.49-9.06c1.29-2.97,2.67-5.89,4.32-8.74c-0.4,3.27-1.14,6.44-1.99,9.56c-0.83,3.13-1.8,6.2-2.82,9.24
									c-1.02,3.04-2.08,6.07-3.19,9.08C233.94,645.59,232.84,648.61,231.56,651.64z"/>
							</g>
							<g>
								<path class="st19" d="M261.51,610.71c0.65,4.34,0.84,8.71,0.88,13.05c0.05,4.35-0.05,8.67-0.17,12.98
									c-0.11,4.31-0.28,8.6-0.33,12.9c-0.05,4.3-0.01,8.59,0.12,12.97c-1.42-4.15-2.17-8.51-2.58-12.87
									c-0.41-4.36-0.5-8.74-0.37-13.1c0.12-4.35,0.46-8.68,0.88-13C260.35,619.34,260.85,615.04,261.51,610.71z"/>
							</g>
							<g>
								<path class="st19" d="M277.98,662.12c-0.53-4.24-0.53-8.52-0.31-12.75c0.22-4.24,0.64-8.46,1.18-12.64
									c0.52-4.18,1.16-8.34,1.77-12.49l1.86-12.53c0.66,4.22,0.75,8.51,0.6,12.75c-0.16,4.25-0.55,8.48-1.09,12.67
									c-0.53,4.19-1.2,8.35-1.87,12.5C279.44,653.78,278.76,657.92,277.98,662.12z"/>
							</g>
							<g>
								<path class="st19" d="M298.44,616.7c1.65,3.54,2.96,7.2,4.12,10.88c1.16,3.69,2.19,7.41,3.08,11.17
									c0.9,3.75,1.66,7.53,2.31,11.34c0.65,3.8,1.2,7.63,1.47,11.53c-1.54-3.59-2.76-7.27-3.87-10.97
									c-1.1-3.7-2.1-7.42-2.98-11.17c-0.89-3.74-1.68-7.51-2.39-11.3C299.47,624.39,298.84,620.59,298.44,616.7z"/>
							</g>
							<g>
								<path class="st19" d="M323.9,605.72c1.03,3.6,1.84,7.19,2.56,10.81c0.75,3.61,1.36,7.24,1.87,10.9
									c0.49,3.66,0.87,7.35,1,11.06c0.15,3.71,0.09,7.44-0.44,11.15c-0.79-3.66-1.41-7.28-2.02-10.9
									c-0.62-3.62-1.18-7.24-1.68-10.89c-0.49-3.64-0.92-7.31-1.17-11C323.76,613.17,323.63,609.45,323.9,605.72z"/>
							</g>
							<g>
								<path class="st19" d="M226.07,721.51c5.27,2.11,10.79,3.32,16.36,3.97c5.57,0.68,11.19,0.82,16.81,0.76
									c5.62-0.1,11.25-0.36,16.88-0.74l8.45-0.52l8.44-0.71c11.29-0.87,22.49-1.91,33.77-3.08c5.63-0.54,11.24-1.04,16.75-2.08
									c5.49-1.04,10.98-2.54,15.79-5.59c-2.19,1.81-4.71,3.22-7.33,4.36c-2.62,1.14-5.36,2-8.13,2.74
									c-5.54,1.41-11.2,2.26-16.81,3.01c-5.58,0.8-11.23,1.55-16.86,2.18c-5.64,0.61-11.29,1.11-16.93,1.6l-8.49,0.64
									c-2.85,0.14-5.67,0.31-8.5,0.42c-5.67,0.21-11.36,0.41-17.06,0.22c-5.7-0.14-11.41-0.63-17.03-1.69
									C236.6,725.92,231.05,724.26,226.07,721.51z"/>
							</g>
							<g>
								<path class="st19" d="M343.36,725.51c-4.98,3.8-10.65,6.63-16.51,8.85c-5.87,2.24-11.95,3.87-18.11,5.12
									c-6.16,1.22-12.4,2.02-18.67,2.49c-6.27,0.47-12.56,0.61-18.86,0.31c-6.29-0.28-12.57-1-18.77-2.1
									c-6.2-1.07-12.29-2.55-18.37-3.41c-3.05-0.42-6.09-0.7-9.14-0.77c-1.56,0-3.13-0.05-4.6,0c-1.47,0.06-2.89,0.24-3.94,0.74
									c-1.02,0.51-1.61,1.36-1.94,2.6c-0.31,1.24-0.35,2.69-0.11,3.92c0.32,1.25,0.85,2.4,1.75,3.33
									c0.92,0.91,2.08,1.65,3.37,2.22c2.63,1.12,5.62,1.7,8.67,2.18c1.52,0.24,3.08,0.46,4.66,0.74l4.61,0.83l4.57,0.81l4.61,0.61
									c3.06,0.47,6.16,0.69,9.24,0.99c12.35,1.06,24.82,0.96,37.18-0.21c12.36-1.18,24.63-3.5,36.54-7.08
									c11.94-3.49,23.48-8.39,34.28-14.7c-10.42,6.92-21.93,12.15-33.81,16.17c-11.92,3.92-24.27,6.54-36.75,8.03
									c-3.12,0.35-6.26,0.6-9.39,0.9c-3.14,0.13-6.28,0.31-9.42,0.39l-4.72,0.01c-1.57,0-3.15,0.03-4.72-0.06l-4.72-0.18
									l-2.36-0.1l-2.35-0.19c-3.14-0.25-6.28-0.49-9.39-0.94l-4.68-0.6l-4.66-0.8l-4.61-0.81c-1.5-0.26-3.04-0.47-4.6-0.71
									c-3.11-0.48-6.32-1.05-9.46-2.37c-1.55-0.7-3.08-1.64-4.37-2.94c-1.29-1.34-2.12-3.08-2.54-4.86
									c-0.34-1.84-0.28-3.57,0.16-5.36c0.25-0.89,0.6-1.83,1.24-2.64c0.59-0.85,1.47-1.48,2.34-1.93c1.8-0.83,3.56-0.96,5.19-1.04
									c1.65-0.05,3.2,0,4.76,0.01c3.2,0.08,6.39,0.38,9.52,0.86c6.28,0.96,12.34,2.52,18.44,3.64c6.09,1.13,12.23,1.98,18.42,2.41
									c12.35,0.82,24.86,0.14,37.11-1.91c6.13-1,12.21-2.4,18.11-4.39c1.47-0.5,2.92-1.07,4.38-1.61
									c1.45-0.57,2.85-1.25,4.28-1.86c1.41-0.66,2.77-1.42,4.16-2.13C340.73,727.19,342.03,726.33,343.36,725.51z"/>
							</g>
						</g>
					</g>
					<g>
						<path class="st5" d="M252.03,497.41c9.98,10.98,24.96,17.47,40.43,11.98c19.47-6.99,14.63-52.43,12.13-68.4
							c-2-14.97-9.63-9.96-24.11-9.96c-8.48,0-23.46-1-29.94,4.99L252.03,497.41z"/>
					</g>
					<g>
						<path class="st17" d="M253.02,436.52c6.49,9.48,9.98,25.45,23.46,26.95c14.97,1.5,25.86-20.92,23.37-32.4L253.02,436.52z"/>
					</g>
					<g>
						<path class="st14" d="M214.21,439.73l-0.05-0.3c-0.48,27.56-9.45,53.99-18,80.13c-6.68,21.22-12.69,43.06-18.34,64.51
							c4.44,8.35,12.84,13.53,21.02,10.59c3.54-7.15,6.87-14.4,9.67-21.88c9.5-25.18,16.63-53.22,22.33-79.35
							C234.16,477.74,245.09,433.55,214.21,439.73z"/>
					</g>
					<g>
						<path d="M177.81,584.06c-1.18,4.49-2.37,8.98-3.52,13.42c-4.28,15.2-9.98,29.93-14.26,44.67c-1.9,6.18-1.9,11.4,5.7,9.98
							l16.16-24.71c5.48-10.95,11.47-21.74,16.94-32.77C190.66,597.59,182.25,592.41,177.81,584.06z"/>
					</g>
				</g>
				<g>
					<g>
						<path class="st5" d="M451.19,757.53c3.59,9.3,7.79,18.33,9.25,28.25c0.96,6.48-0.01,10.35,4.5,15.85
							c4.92,5.98,11.38,11.79,17.23,16.9c3.36,2.94,9.93,11.88,14.67,10.65c1.64-7.6-6.3-14.47-9.78-20.45
							c17.51-7.71,34.56,17.21,46.66,24.25c2.59-3.17,0.42-6.39-0.01-9.98c-0.36-2.94,0.28-7.16-0.38-10.59
							c-1.48-7.71-11.54-18.42-17.11-23.74c-7.12-6.82-23.11-9.01-29.85-15.89c-7.32-7.48-16.82-16.53-20.86-26.01
							C464.11,743.51,459.01,740.42,451.19,757.53z"/>
					</g>
					<g>
						<g>
							<path class="st17" d="M533.72,833c1.12-2.02,0.99-4.34,0.26-6.36c-0.71-2.05-1.91-3.91-3.26-5.62
								c-0.69-0.86-1.42-1.63-2.22-2.39c-0.79-0.78-1.61-1.53-2.44-2.27c-1.68-1.46-3.38-2.91-5.15-4.29
								c-1.75-1.4-3.52-2.79-5.32-4.15c-1.77-1.41-3.57-2.77-5.31-4.23c-1.76-1.44-3.47-2.93-5.13-4.51
								c-1.62-1.61-3.09-3.27-5.25-4.09c1.13,0.15,2.23,0.6,3.22,1.21c1,0.59,1.9,1.34,2.8,1.99c1.8,1.33,3.66,2.62,5.5,3.92
								c1.86,1.28,3.68,2.61,5.54,3.91c1.82,1.34,3.65,2.7,5.43,4.12c1.76,1.45,3.53,2.91,5.17,4.51c0.82,0.81,1.63,1.62,2.41,2.47
								c0.8,0.83,1.54,1.79,2.2,2.74c1.33,1.93,2.39,4.07,2.89,6.39c0.24,1.16,0.32,2.36,0.12,3.53
								C534.98,831.04,534.46,832.13,533.72,833z"/>
						</g>
						<g>
							<path class="st17" d="M505.16,791.74c3.39,1.85,6.66,3.84,9.87,5.95c1.62,1.04,3.17,2.16,4.75,3.27
								c1.55,1.15,3.08,2.31,4.58,3.54c1.49,1.22,3.01,2.67,4.17,4.29c1.18,1.63,2.15,3.39,2.87,5.23
								c1.46,3.68,2.12,7.48,2.74,11.28c-1.54-3.54-2.71-7.21-4.4-10.52c-1.68-3.33-3.93-6.19-6.88-8.44
								c-1.46-1.2-2.94-2.4-4.45-3.56l-4.48-3.56C510.95,796.82,507.96,794.4,505.16,791.74z"/>
						</g>
						<g>
							<path class="st17" d="M504.82,791.67c3.39,1.85,6.66,3.84,9.87,5.95c1.62,1.04,3.17,2.16,4.75,3.27
								c1.55,1.15,3.08,2.32,4.58,3.54c1.49,1.22,3.01,2.67,4.18,4.29c1.18,1.63,2.15,3.39,2.87,5.23
								c1.46,3.68,2.12,7.48,2.74,11.28c-1.54-3.54-2.71-7.21-4.4-10.52c-1.68-3.33-3.93-6.19-6.88-8.44
								c-1.46-1.2-2.94-2.4-4.44-3.56l-4.48-3.56C510.6,796.76,507.62,794.34,504.82,791.67z"/>
						</g>
						<g>
							<path class="st17" d="M509.21,788.93c2.99,2.25,6.12,4.19,9.23,6.26c3.1,2.06,6.19,4.29,8.86,7.07
								c2.62,2.77,4.93,6.04,6.01,9.83c1.09,3.78,0.95,7.65,0.34,11.34c-0.45-3.72-0.86-7.42-2.18-10.71
								c-1.26-3.31-3.46-6.19-5.87-8.85c-2.45-2.63-5.33-4.91-8.2-7.26C514.52,794.26,511.58,791.85,509.21,788.93z"/>
						</g>
						<g>
							<path class="st17" d="M509,788.58c2.99,2.25,6.12,4.19,9.23,6.26c3.1,2.06,6.19,4.29,8.86,7.07
								c2.62,2.77,4.93,6.04,6.02,9.83c1.09,3.78,0.95,7.65,0.34,11.34c-0.45-3.72-0.87-7.42-2.19-10.71
								c-1.26-3.31-3.46-6.19-5.87-8.85c-2.45-2.63-5.33-4.91-8.21-7.26C514.31,793.91,511.37,791.5,509,788.58z"/>
						</g>
					</g>
				</g>
			</g>
			<g>
				<g>
					<g>
						<path class="st20" d="M228.46,390.25c-16.84,2.11-40.53-15.79-27.37-33.16c14.21-18.95,52.11-23.16,73.69-24.74
							c20-2.1,50.53,1.06,66.32,12.64c11.05,7.37,17.9,16.32,9.47,28.42c-6.84,9.47-20.53,15.26-32.11,14.74L228.46,390.25z"/>
					</g>
					<g>
						<g>
							<path class="st20" d="M317.41,321.38c-1.16-4.45-2.19-9-3.14-13.77c-4.74-27.9-24.74-46.32-52.64-29.48
								c-13.16,8.42-20,22.63-25.79,36.85c-1.21,3.12-2.71,6.54-4.19,10.05c8.38-4.01,17.14-7.11,26.83-7.42
								C277.53,317.2,298.54,316.16,317.41,321.38z"/>
						</g>
						<g>
							<path class="st21" d="M258.47,317.61c-9.69,0.31-18.44,3.41-26.83,7.42c-3.03,7.18-5.98,14.82-6.34,21.53l98.17-7.37
								c-3.36-7.73-4.01-9.97-6.07-17.82C298.54,316.16,277.53,317.2,258.47,317.61z"/>
						</g>
					</g>
				</g>
				<g>
					<path d="M234.25,338.14c-18.42,4.21-15.79,43.69-15.79,56.85c-1.06,29.48,4.21,60.01,1.05,88.96
						c-2.11,21.58-11.05,37.37-18.42,56.85c6.32,0.53,13.69-0.52,18.95-3.16c-0.53,6.84-4.21,15.26-7.89,21.58
						c9.48,0.53,17.37,3.68,23.16-5.79c4.21-7.37,3.16-17.9,6.32-26.32c4.74,5.26,2.63,21.58-2.11,26.85
						c12.11,14.74,15.27-10,15.79-17.9c0.52-11.58,0.52-23.16,0.52-34.74c0-22.63-1.05-45.27,0-67.38
						c14.21-2.11,31.06,1.05,45.27,1.58c2.63,17.9,1.58,37.9,2.1,56.32c0.53,20-3.16,34.74-15.79,50.01
						c9.48,2.63,20-11.06,20.53-19.48c0.53,11.58,3.16,28.42,7.37,38.42c10-10,14.21-11.05,13.16-25.79
						c-1.05-9.47-0.53-21.58-3.68-31.05c5.79,13.69,7.37,28.95,14.21,42.64c5.26,11.05,10.53,7.37,21.06,6.32l0,0
						c-2.11-11.58-7.9-22.11-10-33.69c-2.11-13.16-2.11-25.79-3.16-38.95c-2.63-25.26-4.21-51.58-10-76.32
						c-3.16-15.79-5.79-32.64-12.63-47.9c-3.16-7.37-6.84-17.37-14.21-22.11c-6.84-4.74-15.79-3.68-23.69-5.26L234.25,338.14z"/>
				</g>
				<g>
					<path class="st22" d="M198.98,359.72c0,0,81.59-48.95,155.28,0.53c0,0-8.95-34.74-75.27-34.74
						C279,325.51,222.14,322.35,198.98,359.72z"/>
				</g>
				<g>
					<path class="st5" d="M318.47,366.3c-5.2-5.95-13.57-9.33-23.12-10.98c-0.09-0.83-0.19-1.66-0.31-2.44
						c-0.26-4.48-1.05-8.95-3.42-12.9c-1.32,3.68-2.44,11.41-4.56,16.69c-1.58-3.69-1.49-11.95-3.6-15.37
						c-1.69,2.82-2.17,8.19-2.21,12.76c-9.38-0.19-18.97,0.75-27.23,2.18c-0.67-5.15-1.31-10.53-2.67-15.19
						c0,0-4.86,19.88-5.26,15.27c-0.52-1.84-2.9-11.05-2.9-11.05c0.15,0.18-4.54,14.63-4.54,14.63c-2.6,0.84-4.65,1.69-5.99,2.48
						c0.79,20.79-0.79,38.95,4.74,59.48c1.84,6.84,3.16,11.05,10,13.68c5.53,2.63,11.32,5.53,16.85,8.16
						c7.37,3.42,14.74,8.42,22.11,2.63c0,0,23.31-15.79,23.95-16.32c4.47-3.69,8.68-25,9.21-38.16
						C319.83,384.19,318.47,366.3,318.47,366.3z"/>
				</g>
				<g>
					<g>
						<path d="M247.67,370.01c-0.76-1.3-0.44-3.11,0.38-4.41c0.82-1.34,2.04-2.32,3.35-3c1.32-0.68,2.76-1.04,4.22-1.07
							c1.44-0.02,2.99,0.27,4.15,1.22c-1.42,0.35-2.55,0.78-3.7,1.22c-1.13,0.44-2.21,0.92-3.24,1.44c-1.03,0.53-2,1.09-2.88,1.77
							C249.08,367.88,248.27,368.66,247.67,370.01z"/>
					</g>
					<g>
						<path d="M290.68,361.41c2.76-1.79,6.73-1.38,9.47,0.72c1.38,1.04,2.46,2.49,3.03,4.08c0.57,1.59,0.66,3.32,0.13,4.87
							c-0.79-1.44-1.5-2.66-2.33-3.71c-0.82-1.06-1.73-1.95-2.74-2.72c-1.01-0.77-2.13-1.41-3.37-1.93
							C293.63,362.19,292.27,361.8,290.68,361.41z"/>
					</g>
				</g>
				<g>
					<path class="st17" d="M273.01,389.79c0.33,1.13,0.1,2.45-0.4,3.56c-0.52,1.12-1.22,2.14-2.05,3.02
						c-0.82,0.88-1.74,1.66-2.7,2.34c-0.49,0.35-0.9,0.62-1.32,0.94c-0.4,0.29-0.78,0.6-0.9,0.79c-0.11,0.2-0.1,0.05-0.09,0.28
						c0.02,0.22,0.21,0.64,0.45,1.05c0.48,0.87,1.02,1.59,1.72,2.26c1.35,1.32,3.61,2.1,5.48,3.52c-1.17-0.06-2.28-0.17-3.44-0.33
						c-1.14-0.19-2.37-0.5-3.49-1.18c-1.12-0.66-2.09-1.64-2.8-2.67c-0.37-0.53-0.73-1.11-0.96-1.98c-0.05-0.23-0.08-0.47-0.09-0.72
						c0.01-0.27,0-0.53,0.08-0.8c0.11-0.55,0.38-1,0.65-1.37c0.56-0.7,1.11-1.06,1.62-1.42c0.5-0.32,1.04-0.66,1.49-0.9
						c0.93-0.52,1.81-1.08,2.68-1.68c0.85-0.6,1.68-1.24,2.4-2C272.06,391.78,272.63,390.91,273.01,389.79z"/>
				</g>
				<path class="st23" d="M300.05,364.92c-8.85,0-16.34,4.98-18.85,11.84c-2.35-1.19-6.45-2.41-10.54,0.41
					c-2.36-7.07-9.95-12.25-18.97-12.25c-10.9,0-25.07,3.31-25.07,12.63c0,9.32,14.17,21.12,25.07,21.12
					c7.95,0,14.78-4.03,17.91-9.82c1.91-1.95,6.8-5.52,12.81,1l0,0c3.25,5.5,9.94,8.82,17.64,8.82c10.9,0,25.07-11.8,25.07-21.12
					C325.12,368.23,310.95,364.92,300.05,364.92z"/>
				<g>
					<path d="M314.66,382c0,6.16-6.32,11.15-14.12,11.15c-7.79,0-14.11-4.99-14.11-11.15c0-6.16,6.32-11.15,14.11-11.15
						C308.34,370.84,314.66,375.84,314.66,382z"/>
					<path d="M237.08,382c0,6.16,6.32,11.15,14.12,11.15c7.79,0,14.11-4.99,14.11-11.15c0-6.16-6.32-11.15-14.11-11.15
						C243.4,370.84,237.08,375.84,237.08,382z"/>
				</g>
				<g>
					<g>
						<path class="st24" d="M291.69,422.98c0.26,0.06,0.5,0.14,0.76,0.2c1.27-1.53,2.4-3.26,3.26-5.3l-17.16,0.72
							c-16.01,0.42-21.14-0.48-21.14-0.48l0.17,0.91c0.46,2.39,1.66,4.44,3.3,6.16C271.03,422.4,281.18,420.8,291.69,422.98z"/>
						<path class="st25" d="M291.69,422.98c-10.5-2.18-20.65-0.59-30.8,2.21c7.08,7.41,23.15,8.12,31.56-2.01
							C292.19,423.12,291.95,423.04,291.69,422.98z"/>
					</g>
					<g>
						<defs>
							<path id="SVGID_1_" d="M278.55,418.6c-16.01,0.42-21.14-0.48-21.14-0.48l0.17,0.91c0.46,2.39,1.66,4.44,3.3,6.16
								c7.08,7.41,23.15,8.12,31.56-2.01c1.27-1.53,2.4-3.26,3.26-5.3L278.55,418.6z"/>
						</defs>
						<clipPath id="SVGID_2_">
							<use xlink:href="#SVGID_1_"  style="overflow:visible;"/>
						</clipPath>
						<path class="st26" d="M258.62,416.9c0,0-0.96,3.86,16.79,3.86c0,0,18.96,0.12,18.96-4.35L258.62,416.9z"/>
					</g>
				</g>
			</g>
		</g>
	</g>
	<path id="SVGID_x5F_3_x5F_" class="st27" d="M-179,211c0,0,227-159,540-159c314,0,540,159,540,159"/>
	<text>	<textPath  xlink:href="#SVGID_x5F_3_x5F_" startOffset="2.35%">
<tspan  style="fill:#4D4D4D; font-family:'Calibri'; font-size:57px;">Por favor selecciona el tipo de</tspan>	</textPath>
</text>
	<path id="SVGID_x5F_4_x5F_" class="st27" d="M-179,281.17c0,0,227-159,540-159c314,0,540,159,540,159"/>
	<text>	<textPath  xlink:href="#SVGID_x5F_4_x5F_" startOffset="2.35%">
<tspan  style="fill:#4D4D4D; font-family:'Calibri'; font-size:57px;">servicio que estás buscando</tspan>	</textPath>
</text>
</g>
<g id="Capa_2">
</g>
</svg>
